<svg xmlns="http://www.w3.org/2000/svg" viewBox="0 0 750 500"><g id="freepik--background-complete--inject-523"><path d="M590.35,394.61c-19.47-17-21.31-44.8-17.83-69.25.58-4.08.6-8.45,2.93-11.83s7.15-5.36,10.63-3.23c2.89,1.76,3.84,5.44,5.22,8.55a24.12,24.12,0,0,0,8.62,10.21c2.47,1.64,5.6,2.81,8.33,1.67,3.75-1.57,4.69-6.41,5.1-10.49q1.15-11.39,2.32-22.79c.41-4.08.85-8.24,2.53-12s4.87-7,8.86-7.69,8.55,2.08,8.94,6.16c.16,1.69-.36,3.38-.43,5.08s.52,3.66,2.07,4.31S641,293,642.32,292c4.65-3.66,8.07-8.65,11.31-13.64s6.4-10.1,10.7-14.17,10-7.06,15.83-6.77,11.7,4.57,12.56,10.46-3.12,11.37-7.27,15.63a91.19,91.19,0,0,1-20.88,16c-1.38.77-2.88,1.61-3.53,3.06-1.18,2.63,1.1,5.6,3.69,6.78,2.93,1.34,6.26,1.38,9.39,2.1s6.43,2.49,7.31,5.62c1.22,4.34-2.74,8.33-6.47,10.82a78.24,78.24,0,0,1-24.49,10.83c-3.12.77-6.38,1.4-9,3.24s-4.5,5.35-3.35,8.38,4.8,4.35,8,4.11,6.2-1.65,9.31-2.45c5.83-1.51,13-.35,16.09,4.88,2,3.43,1.74,7.88.14,11.55s-4.37,6.67-7.26,9.4c-10.11,9.56-22.51,16.8-36,19.91s-25.64,3-38-3.09" style="fill:#f5f5f5"></path><path d="M598.34,379.91a367.17,367.17,0,0,1,18.73-37.75l5.42-9.64c1.78-3.16,3.55-6.3,5.47-9.26a182.19,182.19,0,0,1,12-16.36c4.07-5,8.12-9.64,11.94-13.93s7.47-8.21,10.94-11.65a144.86,144.86,0,0,1,17.57-15c2.21-1.6,4-2.79,5.16-3.58l1.37-.88a2.59,2.59,0,0,1,.48-.28,2.49,2.49,0,0,1-.44.34l-1.33.95c-1.16.83-2.89,2.05-5.06,3.69a153,153,0,0,0-17.38,15.12c-3.44,3.45-7.05,7.38-10.85,11.68s-7.82,8.93-11.87,13.95a187.61,187.61,0,0,0-11.93,16.33c-1.9,2.95-3.65,6.05-5.44,9.22l-5.41,9.64A374.72,374.72,0,0,0,599,380.18" style="fill:#e0e0e0"></path><path d="M628.18,323.26a8.7,8.7,0,0,1-.21-1.78c-.09-1.15-.17-2.82-.24-4.88-.14-4.12-.13-9.81-.11-16.09s0-12-.25-16.07c-.1-2.05-.19-3.71-.27-4.86a8.72,8.72,0,0,1,0-1.79,7.26,7.26,0,0,1,.33,1.76c.17,1.14.35,2.8.51,4.86.34,4.11.5,9.81.48,16.1s-.09,11.8-.11,16.08c0,1.94,0,3.57,0,4.88A7.69,7.69,0,0,1,628.18,323.26Z" style="fill:#e0e0e0"></path><path d="M681.63,319.11a10.64,10.64,0,0,1-2.12,0c-1.36,0-3.32-.07-5.75-.05-4.85,0-11.56.23-18.94.82s-14.05,1.42-18.86,2.16c-2.4.35-4.34.68-5.68.91a11.35,11.35,0,0,1-2.1.28,11.8,11.8,0,0,1,2-.57c1.33-.32,3.26-.74,5.66-1.16,4.79-.87,11.47-1.78,18.88-2.38a183.88,183.88,0,0,1,19-.6c2.43.05,4.4.17,5.76.29A12.45,12.45,0,0,1,681.63,319.11Z" style="fill:#e0e0e0"></path><path d="M599.09,379a2.16,2.16,0,0,1-.29-.67c-.19-.54-.42-1.2-.69-2-.6-1.73-1.39-4.26-2.33-7.39-1.88-6.28-4.2-15-6.64-24.71s-4.68-18.45-6.42-24.76c-.86-3.06-1.57-5.58-2.09-7.46-.23-.81-.41-1.48-.56-2a3.2,3.2,0,0,1-.15-.73,2.5,2.5,0,0,1,.29.68l.7,2c.59,1.73,1.38,4.26,2.32,7.4,1.88,6.27,4.21,15,6.64,24.71s4.68,18.45,6.42,24.75c.86,3.07,1.57,5.59,2.1,7.46l.55,2A3.3,3.3,0,0,1,599.09,379Z" style="fill:#e0e0e0"></path><path d="M671.12,364.08a2.37,2.37,0,0,1-.72.21l-2.1.46-7.71,1.61c-6.51,1.37-15.49,3.35-25.4,5.56s-18.93,4.11-25.47,5.34c-3.27.62-5.92,1.09-7.76,1.37l-2.12.32a2.37,2.37,0,0,1-.75.06,3.43,3.43,0,0,1,.72-.21l2.1-.46,7.71-1.61c6.51-1.36,15.49-3.35,25.41-5.56s18.91-4.11,25.46-5.34c3.27-.61,5.92-1.08,7.76-1.37l2.12-.32A2.37,2.37,0,0,1,671.12,364.08Z" style="fill:#e0e0e0"></path><rect x="593.95" y="122.67" width="119.74" height="107.13" style="fill:#fafafa"></rect><path d="M713.69,229.81s0-.69,0-2,0-3.24,0-5.74c0-5,0-12.39-.07-21.75,0-18.72-.08-45.46-.14-77.66l.27.28L594,123h0l.32-.32c0,39,0,75.66,0,107.14l-.28-.29,86.61.15,24.42.07,6.47,0,1.67,0c.37,0,.57,0,.57,0h-.54l-1.64,0-6.41,0-24.36.07-86.79.15h-.28v-.28c0-31.48,0-68.16,0-107.14v-.32H594l119.73.05H714v.27c-.06,32.27-.11,59.07-.14,77.83,0,9.34-.06,16.67-.07,21.69,0,2.48,0,4.38,0,5.69S713.69,229.81,713.69,229.81Z" style="fill:#e0e0e0"></path><path d="M639.86,141.71c0,.18-6.3.32-14.07.32s-14.08-.14-14.08-.32,6.3-.32,14.08-.32S639.86,141.53,639.86,141.71Z" style="fill:#e0e0e0"></path><path d="M690.6,149.75c0,.18-17.31.32-38.67.32s-38.67-.14-38.67-.32,17.31-.32,38.67-.32S690.6,149.58,690.6,149.75Z" style="fill:#e0e0e0"></path><rect x="611.92" y="163.38" width="5.04" height="5.04" style="fill:#e0e0e0"></rect><rect x="624.33" y="163.38" width="5.04" height="5.04" style="fill:#e0e0e0"></rect><rect x="636.98" y="163.15" width="5.04" height="5.04" style="fill:#e0e0e0"></rect><rect x="649.17" y="163.38" width="5.04" height="5.04" style="fill:#e0e0e0"></rect><rect x="661.59" y="163.38" width="5.04" height="5.04" style="fill:#e0e0e0"></rect><rect x="674.01" y="163.38" width="5.04" height="5.04" style="fill:#e0e0e0"></rect><rect x="686.43" y="163.38" width="5.04" height="5.04" style="fill:#ebebeb"></rect><rect x="611.92" y="174.1" width="5.04" height="5.04" style="fill:#ebebeb"></rect><rect x="624.33" y="174.1" width="5.04" height="5.04" style="fill:#e0e0e0"></rect><rect x="636.75" y="174.1" width="5.04" height="5.04" style="fill:#ebebeb"></rect><rect x="649.17" y="174.1" width="5.04" height="5.04" style="fill:#e0e0e0"></rect><rect x="661.59" y="174.1" width="5.04" height="5.04" style="fill:#e0e0e0"></rect><rect x="674.24" y="173.87" width="5.04" height="5.05" style="fill:#e0e0e0"></rect><rect x="686.43" y="174.1" width="5.04" height="5.04" style="fill:#e0e0e0"></rect><rect x="611.92" y="184.83" width="5.04" height="5.04" style="fill:#e0e0e0"></rect><rect x="624.56" y="184.6" width="5.04" height="5.04" style="fill:#e0e0e0"></rect><rect x="636.75" y="184.83" width="5.04" height="5.04" style="fill:#e0e0e0"></rect><rect x="649.17" y="184.83" width="5.04" height="5.04" style="fill:#ebebeb"></rect><rect x="661.59" y="184.83" width="5.04" height="5.04" style="fill:#e0e0e0"></rect><rect x="674.01" y="184.83" width="5.04" height="5.04" style="fill:#e0e0e0"></rect><rect x="686.43" y="184.83" width="5.04" height="5.04" style="fill:#e0e0e0"></rect><rect x="611.92" y="195.55" width="5.04" height="5.05" style="fill:#e0e0e0"></rect><rect x="624.33" y="195.55" width="5.04" height="5.05" style="fill:#e0e0e0"></rect><rect x="636.75" y="195.55" width="5.04" height="5.05" style="fill:#e0e0e0"></rect><rect x="649.4" y="195.32" width="5.04" height="5.04" style="fill:#e0e0e0"></rect><rect x="661.59" y="195.55" width="5.04" height="5.05" style="fill:#e0e0e0"></rect><rect x="674.01" y="195.55" width="5.04" height="5.05" style="fill:#ebebeb"></rect><rect x="686.43" y="195.55" width="5.04" height="5.05" style="fill:#e0e0e0"></rect><rect x="611.92" y="206.28" width="5.04" height="5.04" style="fill:#e0e0e0"></rect><rect x="624.33" y="206.28" width="5.04" height="5.04" style="fill:#ebebeb"></rect><rect x="636.75" y="206.28" width="5.04" height="5.04" style="fill:#e0e0e0"></rect><rect x="649.17" y="206.28" width="5.04" height="5.04" style="fill:#e0e0e0"></rect><rect x="661.59" y="206.28" width="5.04" height="5.04" style="fill:#e0e0e0"></rect><rect x="674.24" y="206.05" width="5.04" height="5.04" style="fill:#e0e0e0"></rect><rect x="686.43" y="206.28" width="5.04" height="5.04" style="fill:#e0e0e0"></rect><path d="M80.11,219.28s-11.19,4.54,1.72,28.31,21.74,35.48,21.74,35.48,2.33,5.54-2.36,6.53-15.09-.4-17,5.42c-2,6,2.46,11.55,11.39,16.27s28.11,15.77,29.84,16.77,3.44,3.55.36,4.74S99.42,337,101.52,348s29.14,20,32.07,21,3.66,2.26,3.47,3.86-8.11,1.88-14.69,3-14,3.6-12.26,9.82,17.94,18.95,56.55,21.72l18,.12L194,392.13c18.07-34.24,15.83-54.72,11.48-59.49s-10.38.23-14.82,5.22-8.87,11.55-10.34,10.86-2.11-1.94-1.44-5,7.28-30.77-.9-38.35S154.94,316,152.3,317.94s-3.89-.85-3.82-2.81.82-24.13,1.54-34.2-1.6-16.8-7.78-18.27c-6-1.42-10.3,8.14-13.62,11.6s-6.79-1.45-6.79-1.45-5.26-13.68-18.61-37.22-23.33-16.2-23.33-16.2" style="fill:#ebebeb"></path><path d="M185.68,411.76c-9.73-17.32-26.52-48.4-41.06-75s-27.73-50.67-37.38-68L95.8,248.15c-1.34-2.41-2.38-4.29-3.11-5.59l-.79-1.46c-.18-.33-.26-.51-.26-.51s.11.16.31.48l.84,1.44,3.2,5.54c2.77,4.81,6.74,11.81,11.6,20.47,9.73,17.32,23,41.36,37.52,68S176.38,394.2,186,411.57" style="fill:#e0e0e0"></path><path d="M98.65,297.54a6.47,6.47,0,0,1,1.26.32c.81.23,2,.61,3.37,1.08,2.83,1,6.71,2.38,11,4l10.86,4.25,3.3,1.27a5.59,5.59,0,0,1,1.2.51,5.75,5.75,0,0,1-1.27-.31c-.8-.24-1.95-.61-3.36-1.1-2.82-1-6.68-2.45-10.93-4.1l-10.88-4.17-3.31-1.25A5.58,5.58,0,0,1,98.65,297.54Z" style="fill:#e0e0e0"></path><path d="M130.78,307.81c-.14-.05,2.43-8.17,5.75-18.13s6.14-18,6.29-18-2.43,8.17-5.76,18.14S130.93,307.86,130.78,307.81Z" style="fill:#e0e0e0"></path><path d="M151.28,349.67a5.74,5.74,0,0,1,.7-1.13c.55-.79,1.23-1.79,2.05-3,1.73-2.51,4.1-6,6.58-9.91s4.61-7.55,6.13-10.19c.72-1.24,1.32-2.29,1.81-3.12a6.52,6.52,0,0,1,.71-1.12,5.45,5.45,0,0,1-.52,1.22c-.37.77-.93,1.87-1.65,3.21-1.43,2.69-3.51,6.36-6,10.3s-4.92,7.38-6.73,9.83c-.91,1.23-1.66,2.21-2.2,2.87A6,6,0,0,1,151.28,349.67Z" style="fill:#e0e0e0"></path><path d="M120.17,346.78a5.09,5.09,0,0,1,1.23,0l3.33.18c2.81.17,6.69.45,11,.79s8.16.69,11,1l3.32.36a5,5,0,0,1,1.21.2,5.14,5.14,0,0,1-1.23,0l-3.33-.18c-2.81-.17-6.69-.45-11-.79s-8.16-.69-11-1l-3.32-.35A5.26,5.26,0,0,1,120.17,346.78Z" style="fill:#e0e0e0"></path><path d="M133.56,386a9.23,9.23,0,0,1,1.58,0l4.27.22c3.6.2,8.57.52,14.07.91s10.46.76,14.06,1.07l4.26.39a9.7,9.7,0,0,1,1.55.21,7.9,7.9,0,0,1-1.57,0l-4.27-.21c-3.6-.2-8.58-.52-14.07-.91s-10.47-.77-14.06-1.07l-4.26-.39A8,8,0,0,1,133.56,386Z" style="fill:#e0e0e0"></path><path d="M172.42,388.5a9.54,9.54,0,0,1,.85-1.45l2.47-3.86c2.08-3.25,4.93-7.76,7.94-12.83s5.63-9.72,7.5-13.1c.89-1.63,1.64-3,2.21-4a9.46,9.46,0,0,1,.87-1.44,9.93,9.93,0,0,1-.68,1.54c-.46,1-1.16,2.38-2.06,4.09-1.78,3.44-4.34,8.13-7.36,13.21s-5.93,9.56-8.09,12.76c-1.09,1.6-2,2.89-2.62,3.76A9.48,9.48,0,0,1,172.42,388.5Z" style="fill:#e0e0e0"></path><rect x="179.12" y="68.92" width="9.71" height="48.3" transform="matrix(1, -0.01, 0.01, 1, -0.5, 0.99)" style="fill:#e0e0e0"></rect><rect x="94.97" y="69.09" width="25.13" height="26.66" transform="matrix(1, -0.01, 0.01, 1, -0.44, 0.58)" style="fill:#ebebeb"></rect><rect x="119.99" y="68.95" width="25.13" height="26.66" transform="matrix(1, -0.01, 0.01, 1, -0.44, 0.71)" style="fill:#f5f5f5"></rect><path d="M94.94,76.52c16.7.13,33.45,0,50.15-.23a.27.27,0,0,0,0-.54q-25.07-.14-50.15.31a.23.23,0,0,0,0,.46Z" style="fill:#e0e0e0"></path><rect x="79.29" y="95.36" width="45.67" height="21.73" transform="translate(-0.57 0.55) rotate(-0.31)" style="fill:#ebebeb"></rect><rect x="124.74" y="95.11" width="45.67" height="21.73" transform="translate(-0.57 0.79) rotate(-0.31)" style="fill:#f5f5f5"></rect><path d="M79.26,101.52c30.34.35,60.78,0,91.12-.45a.27.27,0,0,0,0-.53c-30.33-.16-60.78-.14-91.11.53a.23.23,0,0,0,0,.45Z" style="fill:#e0e0e0"></path><rect x="62.19" y="117.21" width="176.92" height="7.78" style="fill:#e0e0e0"></rect><rect x="91.15" y="120.95" width="7.18" height="26.56" style="fill:#e0e0e0"></rect><rect x="198.37" y="120.95" width="7.18" height="26.56" style="fill:#e0e0e0"></rect><rect x="188.64" y="50.91" width="9.71" height="66.42" transform="translate(-0.45 1.04) rotate(-0.31)" style="fill:#ebebeb"></rect><rect x="198.39" y="63.29" width="15.08" height="53.83" transform="translate(-0.48 1.11) rotate(-0.31)" style="fill:#f5f5f5"></rect><path d="M213.23,73.62a55.64,55.64,0,0,1-7.54.26,55.51,55.51,0,0,1-7.54-.26,53.63,53.63,0,0,1,7.54-.26A53.75,53.75,0,0,1,213.23,73.62Z" style="fill:#e0e0e0"></path><path d="M213.23,71.36a55.64,55.64,0,0,1-7.54.26,55.51,55.51,0,0,1-7.54-.26,53.63,53.63,0,0,1,7.54-.26A53.75,53.75,0,0,1,213.23,71.36Z" style="fill:#e0e0e0"></path><path d="M213.23,109a55.64,55.64,0,0,1-7.54.26,55.51,55.51,0,0,1-7.54-.26,53.63,53.63,0,0,1,7.54-.26A53.75,53.75,0,0,1,213.23,109Z" style="fill:#e0e0e0"></path><path d="M213.23,106.72a55.64,55.64,0,0,1-7.54.26,55.51,55.51,0,0,1-7.54-.26,52.65,52.65,0,0,1,7.54-.27A52.77,52.77,0,0,1,213.23,106.72Z" style="fill:#e0e0e0"></path><path d="M205.93,101.78c-.15,0-.26-5.43-.26-12.13s.11-12.13.26-12.13.26,5.43.26,12.13S206.07,101.78,205.93,101.78Z" style="fill:#e0e0e0"></path><rect x="213.39" y="76.47" width="16.42" height="40.63" style="fill:#ebebeb"></rect><path d="M196,62.22a2.79,2.79,0,1,1-2.79-2.79A2.79,2.79,0,0,1,196,62.22Z" style="fill:#e0e0e0"></path><rect x="192.31" y="69.9" width="1.72" height="39.51" style="fill:#e0e0e0"></rect></g><g id="freepik--speech-bubble--inject-523"><ellipse cx="586.42" cy="128.35" rx="43.13" ry="42.81" style="fill:#fff"></ellipse><path d="M584.25,141.68a2.4,2.4,0,0,1-1.33-2.19l.21-12a2.41,2.41,0,0,1,3.1-2.26,7.47,7.47,0,0,0,5.87-.79,6.72,6.72,0,0,0,3.27-4.22,6.89,6.89,0,0,0-1.13-5.25,7.68,7.68,0,0,0-4.88-3.36c-3.85-.68-8.21,2-9.52,5.93a2.41,2.41,0,0,1-4.56-1.54c2.07-6.12,8.76-10.21,14.92-9.12a12.34,12.34,0,0,1,8,5.43,11.66,11.66,0,0,1,1.82,9,11.51,11.51,0,0,1-5.54,7.31,12.51,12.51,0,0,1-6.63,1.73l-.16,9.22a2.42,2.42,0,0,1-2.45,2.37A2.38,2.38,0,0,1,584.25,141.68Z" style="fill:#FF725E"></path><path d="M587.47,146.77a2,2,0,1,1-2-2A2,2,0,0,1,587.47,146.77Z" style="fill:#FF725E"></path><path d="M543.2,162.07s.47,0,1.25.3a5.71,5.71,0,0,1,2.72,2,5.37,5.37,0,0,1,.93,2.16,4.7,4.7,0,0,1-.3,2.64,5.12,5.12,0,0,1-9.6,0,4.62,4.62,0,0,1-.32-2.64,5.23,5.23,0,0,1,.92-2.16,5.67,5.67,0,0,1,2.7-2.07,12.1,12.1,0,0,1,1.25-.31s-.12,0-.34,0a2.38,2.38,0,0,0-.41.05,3.7,3.7,0,0,0-.55.12,5.76,5.76,0,0,0-3.9,4.32,5,5,0,0,0,.31,2.84,5.69,5.69,0,0,0,1.95,2.48,5.13,5.13,0,0,0,6.4,0,5.88,5.88,0,0,0,1.93-2.49,4.94,4.94,0,0,0,.29-2.84,5.76,5.76,0,0,0-3.93-4.3,3.45,3.45,0,0,0-.55-.12,2.25,2.25,0,0,0-.41,0C543.32,162.05,543.2,162.05,543.2,162.07Z" style="fill:#263238"></path><path d="M530.52,176.35s.29.05.78.22a3.58,3.58,0,0,1,1.67,1.3,3,3,0,0,1,.38,3,3.16,3.16,0,0,1-5.92,0,3,3,0,0,1,.36-3,3.5,3.5,0,0,1,1.67-1.31c.48-.18.78-.19.77-.22a1.53,1.53,0,0,0-.82.07,3.65,3.65,0,0,0-2.51,2.74,3.13,3.13,0,0,0,.19,1.82,3.51,3.51,0,0,0,6.6,0,3.21,3.21,0,0,0,.18-1.82,3.67,3.67,0,0,0-.67-1.45,3.52,3.52,0,0,0-1.86-1.27A1.78,1.78,0,0,0,530.52,176.35Z" style="fill:#263238"></path><path d="M543.73,134.37s0-.24,0-.7-.09-1.15-.16-2c0-.45-.08-.95-.13-1.5s0-1.16,0-1.82,0-1.37,0-2.12a7.85,7.85,0,0,1,.08-1.17c.05-.4.09-.81.14-1.24a40.81,40.81,0,0,1,3.12-12,42.58,42.58,0,0,1,9.1-13.58l1.64-1.63c.58-.52,1.21-1,1.82-1.51l.93-.76a8.48,8.48,0,0,1,1-.73l2.06-1.37c.35-.23.69-.47,1.05-.69l1.11-.6,2.27-1.2c.77-.39,1.6-.68,2.41-1l1.22-.5c.21-.09.41-.18.62-.25l.64-.19a39.7,39.7,0,0,1,5.28-1.38c.91-.16,1.82-.38,2.75-.5l2.83-.25c.48,0,1-.11,1.44-.11l1.44,0c1,0,1.94,0,2.92.06a44.64,44.64,0,0,1,5.9.86l1.48.31.74.17.73.23,2.92.94c1,.36,1.91.8,2.87,1.2.47.22,1,.39,1.43.65l1.38.75a48.83,48.83,0,0,1,5.39,3.42q1.25,1,2.49,2.07l.63.52c.2.18.38.38.58.57L617,98.46l1.16,1.16,1.05,1.28,1.06,1.28.52.65c.17.22.31.46.47.69l1.86,2.79,1.6,3a42.4,42.4,0,0,1,3.78,26.77c-.24,1.11-.47,2.21-.71,3.31l-1,3.19-.26.8-.32.76-.66,1.53-.66,1.52-.79,1.44-.79,1.44-.39.71-.46.68-1.82,2.68a48.42,48.42,0,0,1-4.24,4.77L615.24,160c-.37.37-.8.67-1.19,1-.82.65-1.6,1.34-2.42,2l-2.56,1.71-.63.43c-.22.13-.45.24-.67.36l-1.34.72a44.42,44.42,0,0,1-5.42,2.45c-.92.33-1.87.58-2.79.87l-1.39.42c-.46.13-.94.19-1.4.29l-2.79.54c-.93.14-1.86.19-2.78.28a40,40,0,0,1-5.46.14h-.67c-.22,0-.44,0-.66-.07l-1.32-.14c-.87-.11-1.75-.17-2.6-.32l-2.51-.54-1.24-.26-1.2-.37-2.35-.75a9.06,9.06,0,0,1-1.13-.43l-1.11-.48c-.73-.32-1.46-.61-2.17-.94l-2-1.11a42.81,42.81,0,0,1-12.5-10.54c-.38-.47-.77-.92-1.13-1.38s-.64-1-1-1.43L549.9,151c-.15-.23-.31-.45-.44-.68s-.25-.46-.37-.69L547.67,147c-.42-.85-.72-1.7-1.07-2.48-.16-.4-.32-.78-.48-1.15a8.11,8.11,0,0,1-.4-1.1c-.22-.72-.42-1.4-.62-2s-.38-1.2-.51-1.74l-.3-1.48c-.18-.88-.31-1.55-.41-2s-.15-.68-.15-.68,0,.23.11.69.21,1.14.37,2c.09.45.18.94.28,1.49s.32,1.12.5,1.75l.6,2a8.23,8.23,0,0,0,.4,1.11l.47,1.16c.34.78.64,1.64,1.06,2.49l1.4,2.64c.12.24.25.47.37.7s.29.45.44.68l.92,1.39q.48.71,1,1.44c.36.46.75.92,1.13,1.39A43.09,43.09,0,0,0,565.27,166l2,1.12c.71.34,1.45.63,2.19,1l1.11.47a7.47,7.47,0,0,0,1.14.44l2.37.76,1.2.38,1.25.27,2.53.54c.85.16,1.73.22,2.61.33l1.33.15c.22,0,.45.06.67.07h.67a40.57,40.57,0,0,0,5.5-.13c.93-.09,1.87-.13,2.81-.28l2.81-.54c.47-.1,1-.16,1.42-.29l1.4-.42c.93-.29,1.88-.54,2.81-.87a44.52,44.52,0,0,0,5.48-2.47l1.34-.72c.23-.12.46-.23.68-.37l.64-.42,2.58-1.72c.83-.62,1.62-1.31,2.44-2,.4-.34.84-.65,1.21-1l1.13-1.12a50.62,50.62,0,0,0,4.28-4.81l1.84-2.71.46-.67.4-.73.8-1.44.8-1.46.66-1.53.66-1.54.33-.77.26-.8c.35-1.08.69-2.15,1-3.23l.72-3.34a42.83,42.83,0,0,0-3.82-27l-1.61-3c-.63-.94-1.25-1.88-1.88-2.81l-.47-.7-.53-.65-1.07-1.29-1.06-1.29-1.17-1.18L616.1,97l-.59-.58-.63-.53-2.52-2.08a47.29,47.29,0,0,0-5.44-3.44l-1.39-.76c-.47-.26-1-.43-1.45-.65-1-.41-1.91-.85-2.89-1.21l-3-1-.74-.23-.74-.16-1.5-.32a45.23,45.23,0,0,0-5.94-.86c-1-.06-2,0-3-.06h-1.46c-.48,0-1,.07-1.44.11l-2.85.26c-.94.12-1.86.34-2.77.5a41.5,41.5,0,0,0-5.32,1.4l-.65.2c-.21.07-.42.17-.62.25L570,88.4c-.81.35-1.64.65-2.42,1l-2.28,1.22-1.12.6-1.06.7-2.06,1.38a9,9,0,0,0-1,.74l-.93.77c-.62.52-1.25,1-1.84,1.52L555.69,98a42.89,42.89,0,0,0-9.11,13.69,41.09,41.09,0,0,0-3.06,12.06c0,.42-.09.84-.14,1.24a7.81,7.81,0,0,0-.07,1.17c0,.76,0,1.47,0,2.13s0,1.27,0,1.82.1,1.06.15,1.51c.08.89.15,1.57.2,2S543.73,134.37,543.73,134.37Z" style="fill:#263238"></path></g><g id="freepik--Desk--inject-523"><path d="M705.89,415c0,.14-147,.26-328.39.26S49.07,415.18,49.07,415s147-.26,328.43-.26S705.89,414.89,705.89,415Z" style="fill:#263238"></path></g><g id="freepik--character-2--inject-523"><path d="M581.76,270.14a29.72,29.72,0,0,0-24.22-22,18.83,18.83,0,0,0-13.13-30,18.9,18.9,0,0,0-11.11-27.85c-3.42-1-7.18-1-10.18-2.89-3.29-2.07-4.94-5.89-7.3-9a22.5,22.5,0,0,0-26.7-6.42l-8.06,16.86,25.32,81.55c2.61,8.4,5.38,17.07,11.24,23.62,6.44,7.18,16,11,25.56,12.12,9.29,1.12,19.2-.18,26.9-5.51A29.73,29.73,0,0,0,581.76,270.14Z" style="fill:#263238"></path><path d="M556.46,253.65a16.87,16.87,0,0,0,4.48-.5,16.56,16.56,0,0,0,4.84-2.16,16.83,16.83,0,0,0,4.94-5,16.14,16.14,0,0,0,2.46-8.2,19.32,19.32,0,0,0-2.29-9.66,19.68,19.68,0,0,0-7.84-7.8,23,23,0,0,0-11.72-2.83h-.43l.19-.38a19.62,19.62,0,0,0,1.16-14.29,19,19,0,0,0-9.15-11.18,18.44,18.44,0,0,0-3.26-1.43,16.83,16.83,0,0,0-3.39-.79c-2.26-.34-4.66-.12-6.8-1.12a6.37,6.37,0,0,1-2.55-2.21,17,17,0,0,1-1.56-2.86,26.22,26.22,0,0,0-2.95-5.32,23.19,23.19,0,0,0-8.27-7,22.46,22.46,0,0,0-8.67-2.32,24.19,24.19,0,0,0-6.79.58,23,23,0,0,0-4.1,1.36c-.46.19-.79.38-1,.48a2.33,2.33,0,0,1-.36.15,1.93,1.93,0,0,1,.33-.2c.23-.12.55-.32,1-.52a21.27,21.27,0,0,1,4.09-1.47,23.52,23.52,0,0,1,6.85-.67,22.58,22.58,0,0,1,8.82,2.28,23.54,23.54,0,0,1,8.46,7.07,26.08,26.08,0,0,1,3,5.39c.87,1.88,1.91,3.92,3.91,4.83s4.32.72,6.66,1a17.74,17.74,0,0,1,3.48.81,19,19,0,0,1,3.34,1.46,19.55,19.55,0,0,1,9.41,11.48,20.17,20.17,0,0,1-1.2,14.67l-.24-.37a23.51,23.51,0,0,1,12,2.92,20.14,20.14,0,0,1,8,8,19.76,19.76,0,0,1,2.29,9.89,16.55,16.55,0,0,1-2.58,8.36,17.08,17.08,0,0,1-5.07,5.07,16.57,16.57,0,0,1-4.95,2.11,14,14,0,0,1-3.35.41l-.88,0Z" style="fill:#263238"></path><path d="M454.83,408.43c3-2.83,4.44-6.91,5.7-10.84A332.17,332.17,0,0,0,470,361.37l-12-28Z" style="fill:#FF725E"></path><polygon points="572.77 277.73 531.38 269.82 454.38 293.35 455.96 353.69 469.21 415.81 576.38 415.81 580.53 338.09 572.77 277.73" style="fill:#FF725E"></polygon><path d="M572.77,277.61s17.74,3.28,25.09,12,79.54,79.13,82.93,99.48l-58-4.35L580.53,338Z" style="fill:#FF725E"></path><path d="M579.66,331.22a11.1,11.1,0,0,1-.35-1.69c-.19-1.1-.44-2.69-.66-4.68a104.47,104.47,0,0,1-.64-15.56,80,80,0,0,1,.77-8.56,50.4,50.4,0,0,1,1.51-6.85l.41-1.36.45-1.19a17.39,17.39,0,0,1,.8-1.88,9.67,9.67,0,0,1,.81-1.53,12.05,12.05,0,0,1-.63,1.61c-.23.51-.45,1.15-.7,1.9-.13.37-.27.77-.41,1.19l-.38,1.36a55.13,55.13,0,0,0-1.38,6.82,85,85,0,0,0-.73,8.51,123.36,123.36,0,0,0,.48,15.51c.18,2,.37,3.57.5,4.68A10.35,10.35,0,0,1,579.66,331.22Z" style="fill:#263238"></path><path d="M458,363.29a6.67,6.67,0,0,1,.34,1.27c.19.93.44,2.1.74,3.5.62,3.07,1.44,7.1,2.35,11.56s1.79,8.59,2.46,11.53c.32,1.39.59,2.56.81,3.48a6.82,6.82,0,0,1,.26,1.29,7.51,7.51,0,0,1-.46-1.23c-.26-.81-.59-2-1-3.45-.76-2.93-1.69-7-2.61-11.51s-1.69-8.62-2.21-11.6c-.25-1.49-.45-2.69-.57-3.53A5.53,5.53,0,0,1,458,363.29Z" style="fill:#263238"></path><path d="M533.63,347.44a49.7,49.7,0,0,1-1.34-7,46.65,46.65,0,0,1-.82-7.06,49.32,49.32,0,0,1,1.34,7A50,50,0,0,1,533.63,347.44Z" style="fill:#fafafa"></path><path d="M493.73,359.76a38,38,0,0,1,2.1-5.84,37.3,37.3,0,0,1,2.59-5.65,37.93,37.93,0,0,1-2.1,5.85A36.32,36.32,0,0,1,493.73,359.76Z" style="fill:#fafafa"></path><path d="M521,384.45c-.13.08-1.91-2.73-4.5-5.89s-5-5.49-4.86-5.6a7.9,7.9,0,0,1,1.69,1.39,42.08,42.08,0,0,1,3.57,3.88,43.67,43.67,0,0,1,3.08,4.28A7.71,7.71,0,0,1,521,384.45Z" style="fill:#fafafa"></path><path d="M554.94,366.91a21.59,21.59,0,0,1-3.48,3.34,22.53,22.53,0,0,1-3.83,2.95,23,23,0,0,1,3.49-3.34A22.71,22.71,0,0,1,554.94,366.91Z" style="fill:#fafafa"></path><path d="M481.82,395.08A99.2,99.2,0,0,1,469,388.82a48.54,48.54,0,0,1,6.53,2.9A47.71,47.71,0,0,1,481.82,395.08Z" style="fill:#fafafa"></path><path d="M566.07,331.22a29.84,29.84,0,0,1-6,5.12,14.7,14.7,0,0,1,2.8-2.75A15,15,0,0,1,566.07,331.22Z" style="fill:#fafafa"></path><path d="M558.43,301a63.89,63.89,0,0,1,3.4-11.06,31.87,31.87,0,0,1-1.45,5.6A33.29,33.29,0,0,1,558.43,301Z" style="fill:#fafafa"></path><path d="M519.27,321.88a52.55,52.55,0,0,1-10.64,0,54.56,54.56,0,0,1,10.64,0Z" style="fill:#fafafa"></path><path d="M466.07,357.21a46.93,46.93,0,0,1,2.53-6.49,47.91,47.91,0,0,1,3-6.28,90.95,90.95,0,0,1-5.53,12.77Z" style="fill:#fafafa"></path><path d="M591.15,335.09A52.3,52.3,0,0,1,589,324.88a52.3,52.3,0,0,1,2.15,10.21Z" style="fill:#fafafa"></path><path d="M604.39,309.1a37.79,37.79,0,0,1-6-1.64,36.94,36.94,0,0,1-5.89-2.14,77.06,77.06,0,0,1,11.93,3.78Z" style="fill:#fafafa"></path><path d="M611.25,338.07a18,18,0,0,1,.39-4.3,17.61,17.61,0,0,1,.9-4.21,36.11,36.11,0,0,1-1.29,8.51Z" style="fill:#fafafa"></path><path d="M642.31,352.06a142.61,142.61,0,0,1-11.49-12.76,68.59,68.59,0,0,1,5.94,6.21A70,70,0,0,1,642.31,352.06Z" style="fill:#fafafa"></path><path d="M619.29,365.72a51.28,51.28,0,0,1-4.67-5.81,56,56,0,0,1-4.25-6.12A51.28,51.28,0,0,1,615,359.6,54.9,54.9,0,0,1,619.29,365.72Z" style="fill:#fafafa"></path><path d="M647.91,369.8c-.08.13-2.55-1.25-5.75-2.57s-5.92-2.11-5.88-2.26a21.13,21.13,0,0,1,6.08,1.78A21.38,21.38,0,0,1,647.91,369.8Z" style="fill:#fafafa"></path><path d="M496.59,401.79a53.64,53.64,0,0,1,0-10.55,51.66,51.66,0,0,1,0,10.55Z" style="fill:#fafafa"></path><path d="M569.41,382.8a18.3,18.3,0,0,1-3.1-3,18.75,18.75,0,0,1-2.71-3.34,17.92,17.92,0,0,1,3.1,3A18.22,18.22,0,0,1,569.41,382.8Z" style="fill:#fafafa"></path><path d="M573,354.31a43.52,43.52,0,0,1,0-9.5,43.52,43.52,0,0,1,0,9.5Z" style="fill:#fafafa"></path><path d="M531.87,376.48a62.25,62.25,0,0,1-2.26-11.05,60,60,0,0,1,2.26,11.05Z" style="fill:#fafafa"></path><path d="M479.78,372.13a35.61,35.61,0,0,1-5.41-2.95,34.82,34.82,0,0,1-5.13-3.4,37.52,37.52,0,0,1,5.4,3A38.1,38.1,0,0,1,479.78,372.13Z" style="fill:#fafafa"></path><path d="M491.87,323.18a9.19,9.19,0,0,1-.5,2.36,37.77,37.77,0,0,1-4.91,10.5,9.48,9.48,0,0,1-1.49,1.9,14.43,14.43,0,0,1,1.18-2.09c.75-1.27,1.75-3.05,2.7-5.09s1.68-3.94,2.17-5.33A13.34,13.34,0,0,1,491.87,323.18Z" style="fill:#fafafa"></path><path d="M547.77,310.52a35.48,35.48,0,0,0-3.19-4.44,34.32,34.32,0,0,0-4.19-3.49,12.69,12.69,0,0,1,7.38,7.93Z" style="fill:#fafafa"></path><path d="M556.22,277.8a13.67,13.67,0,0,1-3.34,1.56,13.39,13.39,0,0,1-3.52,1.08,12.69,12.69,0,0,1,3.33-1.56A13.4,13.4,0,0,1,556.22,277.8Z" style="fill:#fafafa"></path><path d="M532.56,262.16s14-9.94,7.48-31.35c-3.25-10.65-11.63-26.61-18.92-39.44-6.55-11.56-21.66-22.74-37.51-15,0,0-35.88,14.35-24.62,41.64L492,291.53a24.09,24.09,0,0,0,30.51,12.65h0a24.1,24.1,0,0,0,14.1-30.78Z" style="fill:#eb996e"></path><path d="M522.72,212.43a2.83,2.83,0,0,1-1.21,3.76,2.71,2.71,0,0,1-3.75-1,2.84,2.84,0,0,1,1.21-3.77A2.71,2.71,0,0,1,522.72,212.43Z" style="fill:#263238"></path><path d="M523.5,205.39c-.15.49-2.78,0-5.52,1.34s-4.08,3.7-4.54,3.5c-.22-.07-.19-.83.38-1.89a7.74,7.74,0,0,1,3.44-3.22,7.48,7.48,0,0,1,4.59-.65C523,204.71,523.59,205.17,523.5,205.39Z" style="fill:#263238"></path><path d="M496.83,224.34a2.84,2.84,0,0,1-1.21,3.77,2.71,2.71,0,0,1-3.74-1,2.85,2.85,0,0,1,1.2-3.77A2.71,2.71,0,0,1,496.83,224.34Z" style="fill:#263238"></path><path d="M498.26,218.1c-.16.49-2.78,0-5.52,1.34s-4.08,3.69-4.54,3.5c-.22-.07-.19-.83.38-1.9a7.8,7.8,0,0,1,3.43-3.21,7.51,7.51,0,0,1,4.6-.65C497.76,217.42,498.34,217.88,498.26,218.1Z" style="fill:#263238"></path><path d="M516,232.89c-.09-.15,1.47-1.27,4.06-3,.67-.42,1.26-.88,1.15-1.41s-.74-1.2-1.48-1.85q-2.22-2.07-4.67-4.32c-6.57-6.2-11.69-11.42-11.44-11.69s5.79,4.55,12.36,10.74l4.59,4.39a4.46,4.46,0,0,1,1.7,2.58,1.94,1.94,0,0,1-.65,1.58,5,5,0,0,1-1.11.75C517.77,232.19,516.05,233,516,232.89Z" style="fill:#263238"></path><path d="M532.56,262.16A56.25,56.25,0,0,1,502.49,268s13.11,11.22,32.09-.32Z" style="fill:#eb7741"></path><path d="M519.37,242.88a2.68,2.68,0,0,0-4.43-2.31,2.37,2.37,0,0,0-2.52-1.48,3.37,3.37,0,0,0-2.47,1.79,4.69,4.69,0,0,0,1,5.58,5.12,5.12,0,0,0,5.72.59A5.67,5.67,0,0,0,519.5,242" style="fill:#eb7741"></path><path d="M519.26,247.1c-.45.21-1.68-2.87-5.18-4s-6.64.5-6.84.08c-.12-.18.5-.89,1.87-1.48a8.23,8.23,0,0,1,5.63-.24,7.19,7.19,0,0,1,4.15,3.43C519.52,246.13,519.48,247,519.26,247.1Z" style="fill:#263238"></path><path d="M484,216.82c-.14-.87,2.72-2,5.65-4.09s5-4.35,5.77-3.93c.36.21.29,1.14-.34,2.4a11.58,11.58,0,0,1-3.65,4.06,11.74,11.74,0,0,1-5,2.06C485,217.48,484.11,217.23,484,216.82Z" style="fill:#263238"></path><path d="M509.69,202.5c.15-.86,2.35-1.2,4.6-2.34s3.92-2.57,4.7-2.16c.35.21.37,1-.15,2a7.48,7.48,0,0,1-7.49,3.62C510.23,203.41,509.64,202.91,509.69,202.5Z" style="fill:#263238"></path><path d="M490.2,288.52c-1.4-2.34-3-4.69-3.37-7.39s.45-5.41.33-8.12c-.31-6.83-6.31-11.77-11.37-16.36s-10-11.3-7.6-17.69c2.34-6.18,10.57-8.69,12.58-15,1.65-5.15-1.57-10.87-.13-16.09,1.64-5.93,8.36-8.67,12.38-13.33,5-5.77,8.56-15.07,4-21.15l-3.24-.83c-2-3.32-6.61-4.26-10.29-3.06s-6.55,4-9.08,7-4.91,6.08-8.12,8.23c-5.49,3.68-13.56,4.77-16,10.92-2,5.12,1.11,11.54-1.87,16.17-2.41,3.73-7.73,4.48-10.58,7.89-2.17,2.61-2.49,6.38-1.65,9.67s2.69,6.22,4.52,9.09c-8,3-16.32,6.32-21.94,12.76s-7.43,17.08-1.61,23.34c2.59,2.79,6.78,5.72,5.38,9.26a8.7,8.7,0,0,1-2.93,3.17,24.59,24.59,0,1,0,36.6,31.78c-1,4.43,2.38,9,6.61,10.62s9,1.12,13.43.18c5-1.07,10.15-2.73,13.92-6.23,4.61-4.28,6.58-10.9,6.19-17.17S493.43,293.92,490.2,288.52Z" style="fill:#263238"></path><path d="M496.93,182.47c1.89,4.31-2.84,13.67-6.29,16.86s-7.68,6.06-9.11,10.54c-2.17,6.85,3.17,14.47.8,21.25-1.66,4.78-6.94,8.3-6.68,13.35.32,6.15,8.39,8.91,10.57,14.66,1.85,4.91.51,9.68,2.32,14.6,1.14,3.07,3.65,6.19,5.81,8.64,4.7,5.34,8.14,12.47,6.9,19.71-1.73,10.07-5.58,18.73-11.92,21.95l-21.2-28.16-1.66-45-1.32-22.5,8.18-6,3.06-22.16Z" style="fill:#263238"></path><path d="M446.46,269.7,417.6,362.57s-12.6,53.95,16.14,52.76,24-15.86,24-15.86l.29-110.92s5.27-9.35,5.23-16.54c0-8,1.87-30.95,1.87-30.95s7.22-20.84,4.71-21.76c-4.81-1.77-12.88,21.21-12.88,21.21s2.29,4.33-1.64,16.14S446.46,269.7,446.46,269.7Z" style="fill:#eb996e"></path><path d="M493.69,173.41s.09.09.25.28a5.42,5.42,0,0,1,.6.92,12,12,0,0,1,1.1,4.07,20.19,20.19,0,0,1-.32,6.66c-.56,2.61-2.39,5.11-4.66,7.46s-5.17,4.53-7.71,7.38a17.79,17.79,0,0,0-3.18,4.92c-.8,1.86-1.37,3.9-2.31,5.88a11.67,11.67,0,0,1-1.8,2.81,11.31,11.31,0,0,1-2.66,2.15c-1.95,1.2-4.14,2-6,3.36-3.83,2.67-6.28,7.14-7.59,11.87s-1.52,9.68-1.86,14.36-.77,9.27-2.22,13.4A21.79,21.79,0,0,1,448.38,269a14.39,14.39,0,0,1-5,2.47,23.88,23.88,0,0,1-5.13.58,23.55,23.55,0,0,0-4.59.5,9.12,9.12,0,0,0-3.67,1.73,5.7,5.7,0,0,0-1.9,2.91c-.3,1.06-.42,2.07-.65,3a4.86,4.86,0,0,1-2.34,3.41,2.39,2.39,0,0,1-1.08.25,2,2,0,0,1-.37,0,2.81,2.81,0,0,0,1.4-.3,4.82,4.82,0,0,0,2.2-3.36c.2-.89.31-1.9.6-3a5.94,5.94,0,0,1,2-3.07,9.41,9.41,0,0,1,3.77-1.82,23.79,23.79,0,0,1,4.66-.55,23.4,23.4,0,0,0,5-.6,13.55,13.55,0,0,0,4.86-2.43,21.3,21.3,0,0,0,6.74-9.89A51.1,51.1,0,0,0,457,245.49c.33-4.67.5-9.6,1.87-14.46a27.45,27.45,0,0,1,2.9-6.84,17.68,17.68,0,0,1,4.9-5.31c1.95-1.4,4.15-2.2,6.06-3.37a10.83,10.83,0,0,0,2.54-2,11.07,11.07,0,0,0,1.74-2.69c.92-1.92,1.49-4,2.32-5.85a18.21,18.21,0,0,1,3.28-5c2.59-2.88,5.49-5,7.77-7.35a23.72,23.72,0,0,0,3-3.55,11,11,0,0,0,1.68-3.72,20.49,20.49,0,0,0,.41-6.57,12.75,12.75,0,0,0-1-4A9.7,9.7,0,0,0,493.69,173.41Z" style="fill:#455a64"></path><path d="M493.69,173.41s.05.06.13.19.2.37.34.61a4.48,4.48,0,0,1,.11,2.65c-.59,2.32-3,4.87-6.06,7.55-1.55,1.34-3.23,2.86-5.16,4.32a38.28,38.28,0,0,0-5.72,5.09,13.29,13.29,0,0,0-2.14,3.46,24.49,24.49,0,0,0-1.18,4.14,23.83,23.83,0,0,1-1.28,4.37,10.35,10.35,0,0,1-2.87,3.74,16,16,0,0,1-4.06,2.36c-1.42.61-2.85,1.09-4.24,1.58s-2.76,1-4,1.56a14.78,14.78,0,0,0-3.5,2.12,11.9,11.9,0,0,0-3.87,6.36c-.64,2.31-1,4.54-1.53,6.54-1,4-3.39,6.82-5.48,7.85a5.88,5.88,0,0,1-2.58.65,5.19,5.19,0,0,1-.69-.05l-.23,0s.32,0,.92,0a5.86,5.86,0,0,0,2.48-.73c2-1.05,4.26-3.8,5.23-7.76.51-2,.83-4.21,1.47-6.57a12.29,12.29,0,0,1,4-6.61,15.49,15.49,0,0,1,3.61-2.2c1.3-.61,2.68-1.09,4.07-1.59s2.81-1,4.2-1.58a15.22,15.22,0,0,0,3.94-2.28,9.71,9.71,0,0,0,2.73-3.55,23.72,23.72,0,0,0,1.25-4.27,25,25,0,0,1,1.22-4.22,13.37,13.37,0,0,1,2.24-3.58,37.28,37.28,0,0,1,5.82-5.12c1.93-1.44,3.61-2.93,5.18-4.26,3.11-2.63,5.48-5.1,6.1-7.32a4.52,4.52,0,0,0,0-2.56l-.29-.62A.77.77,0,0,1,493.69,173.41Z" style="fill:#455a64"></path><path d="M482.92,228a4.17,4.17,0,0,1,0,1.19,8.73,8.73,0,0,1-1.1,3.23,14,14,0,0,1-3.56,4,20.54,20.54,0,0,0-4.61,5.31,23.67,23.67,0,0,0-2.34,17.76,23.22,23.22,0,0,0,.8,2.49,19.82,19.82,0,0,0,1.09,2.46c.82,1.61,1.81,3.19,2.8,4.81,2,3.2,4.08,6.75,4.47,10.89a10.87,10.87,0,0,1-1.06,5.93,17.81,17.81,0,0,1-3.52,4.67c-1.35,1.36-2.77,2.58-4.06,3.85a46.87,46.87,0,0,0-3.6,3.93,31.43,31.43,0,0,0-5,8.43,20.65,20.65,0,0,0-1.47,8.37,18.65,18.65,0,0,0,1.59,6.83,15.08,15.08,0,0,0,6.51,7.23l-.27-.13-.79-.41c-.34-.2-.73-.48-1.2-.8a14.69,14.69,0,0,1-1.48-1.31,15.81,15.81,0,0,1-3-4.46,19.08,19.08,0,0,1-1.69-6.94,21,21,0,0,1,1.43-8.53,32,32,0,0,1,5-8.58,44.86,44.86,0,0,1,3.63-4c1.31-1.29,2.71-2.52,4-3.86a17.58,17.58,0,0,0,3.43-4.54,10.4,10.4,0,0,0,1-5.66,17.65,17.65,0,0,0-1.59-5.63,45.29,45.29,0,0,0-2.79-5c-1-1.62-2-3.21-2.82-4.86a20.35,20.35,0,0,1-1.09-2.5,22.14,22.14,0,0,1-.81-2.55,23.94,23.94,0,0,1,2.49-18.07,20.55,20.55,0,0,1,4.73-5.35,14.12,14.12,0,0,0,3.58-3.92,9.08,9.08,0,0,0,1.16-3.14C482.94,228.37,482.89,228,482.92,228Z" style="fill:#455a64"></path><polygon points="469.64 443.9 558.13 436.43 482 414.21 400.64 416.28 469.64 443.9" style="fill:#fff"></polygon><path d="M469.64,443.9s-.43-.15-1.26-.47L464.71,442l-14-5.53-50.18-20-1-.39,1.06,0L482,414h.08l5.93,1.73,70.18,20.52,1.2.35-1.24.1-64,5.31-18.07,1.46-4.77.37-1.22.09h-.42l.42,0,1.23-.12,4.78-.44,18.07-1.59,64-5.5-.05.46-70.2-20.47-5.93-1.73H482l-81.37,2,.08-.42,50.06,20.14,14,5.65,3.66,1.5C469.22,443.71,469.64,443.9,469.64,443.9Z" style="fill:#263238"></path><polygon points="558.13 436.43 643.25 430.15 562.07 414.8 485.14 414.8 558.13 436.43" style="fill:#e0e0e0"></polygon><path d="M558.13,436.43s-.46-.11-1.34-.36L552.9,435l-14.8-4.32-53-15.62-1.47-.44h1.53l76.93,0h0l7.31,1.38,73.86,14,1.73.33-1.76.13-61.64,4.45-17.35,1.22-4.57.3-1.18.07h-.39l.4-.05,1.17-.1,4.59-.37,17.35-1.35,61.59-4.64,0,.46-73.86-13.95L562,415.05h.05l-76.93,0,.06-.44,52.94,15.8,14.78,4.44L556.8,436C557.68,436.27,558.13,436.43,558.13,436.43Z" style="fill:#263238"></path><path d="M558.13,436.43s2-18.49,17.34-17,35.71,11.82,52.45,11.82l18-1.4L607.57,422s-95.11-20.08-95.11-19.45-32-7.08-30.85,11.88Z" style="fill:#fff"></path><path d="M558.13,436.43l-1.38-.37-4.06-1.14-15.48-4.4-55.66-15.89-.15,0v-.15a12.91,12.91,0,0,1,.7-5.28,9.77,9.77,0,0,1,3.27-4.36c3-2.25,6.85-3.05,10.62-3.38a60.59,60.59,0,0,1,11.63.34c2,.2,3.91.6,5.92.64,2,.33,4,.72,6,1.1,16,3.15,32.94,6.69,50.5,10.34l39.63,8.32,36.31,7.49,1.62.34-1.65.13-18,1.38h0a72.56,72.56,0,0,1-17.31-2.67c-5.38-1.4-10.4-3-15.13-4.45s-9.16-2.75-13.33-3.66c-2.08-.45-4.09-.81-6-1a16.36,16.36,0,0,0-5.52.15,13.27,13.27,0,0,0-7.72,4.93,21.61,21.61,0,0,0-3.3,6.08A29,29,0,0,0,558.4,435c-.1.48-.16.84-.21,1.08l-.06.37a14.33,14.33,0,0,1,.2-1.46,29,29,0,0,1,1.12-4.18,22.1,22.1,0,0,1,3.27-6.15,13.52,13.52,0,0,1,7.83-5.06,16.56,16.56,0,0,1,5.6-.17c2,.22,4,.56,6.07,1,4.18.9,8.63,2.19,13.36,3.62s9.76,3,15.13,4.41a72.21,72.21,0,0,0,17.21,2.61h0l18-1.41,0,.46-36.31-7.45-39.64-8.31c-17.56-3.65-34.5-7.2-50.49-10.36-2-.38-4-.77-5.95-1.1l-.73-.11h-.19a.62.62,0,0,1,0-.2c-.08-.06.41,0,.17.09a.27.27,0,0,1-.15.14l-.09,0a2.07,2.07,0,0,1-.44,0c-.51,0-1-.12-1.49-.18l-2.94-.37a59.78,59.78,0,0,0-11.54-.36c-3.73.32-7.5,1.12-10.38,3.27a9.22,9.22,0,0,0-3.13,4.16,12.27,12.27,0,0,0-.68,5.09l-.16-.2,55.45,16.08,15.51,4.51,4.08,1.2Z" style="fill:#263238"></path><rect x="450.11" y="421.19" width="46.76" height="4.17" rx="0.97" style="fill:#263238"></rect><rect x="447.25" y="422.47" width="4.03" height="1.87" rx="0.43" style="fill:#263238"></rect><polygon points="495.16 421.22 500.77 422.67 500.77 423.27 495.16 425.32 495.16 421.22" style="fill:#263238"></polygon><path d="M450.11,423.4a.13.13,0,0,1-.13-.13v-.54a3,3,0,0,1,3.23-2.75h14.4a.13.13,0,0,1,.13.13.12.12,0,0,1-.13.12h-14.4a2.78,2.78,0,0,0-3,2.5v.54A.12.12,0,0,1,450.11,423.4Z" style="fill:#263238"></path><path d="M471.52,437.72c1.6,0,58.5-4.46,58.5-4.46" style="fill:#fff"></path><path d="M530,433.26a3.1,3.1,0,0,1-.59.09l-1.7.18-6.26.56-20.69,1.66-20.69,1.5-6.27.4-1.71.08a2.41,2.41,0,0,1-.59,0,2.57,2.57,0,0,1,.59-.1l1.71-.18,6.26-.56,20.68-1.65,20.68-1.5,6.27-.4,1.71-.08A2.52,2.52,0,0,1,530,433.26Z" style="fill:#263238"></path><path d="M462.12,433.86c1.61,0,58.51-4.47,58.51-4.47" style="fill:#fff"></path><path d="M520.63,429.39a2.57,2.57,0,0,1-.59.1l-1.7.18-6.27.56-20.68,1.65-20.7,1.51-6.27.39-1.7.08a3.06,3.06,0,0,1-.6,0,2.76,2.76,0,0,1,.6-.1l1.7-.18,6.27-.56,20.68-1.66,20.68-1.5,6.27-.39,1.71-.08A2.3,2.3,0,0,1,520.63,429.39Z" style="fill:#263238"></path><path d="M640.59,382l-57.65,9.46s-30.14-5.73-34-5.07c-7.51,1.31-25.6,17.67-25.6,17.67-1.2,7.65,9.32,3.27,9.32,3.27s.09,1.73,3,3.23c2.54,1.3,7.58-1.12,7.58-1.12s-1.28,1.69,2.75,3.38,9.44-1.27,9.44-1.27.92,3.13,5,3.11,13.78-3.06,13.78-3.06c13.44,7.38,21.2,1.51,21.2,1.51l46.52,4L682.49,415s9.42-18.81-8.74-40.11Z" style="fill:#eb996e"></path><path d="M562.12,394.05a6.09,6.09,0,0,1-1.34.12l-3.65.12-5.42.11a9.39,9.39,0,0,0-3.08.29,4.82,4.82,0,0,0-1.4.78c-.44.36-.88.74-1.33,1.12-3.6,3-6.88,5.73-9.28,7.68l-2.85,2.28a7.36,7.36,0,0,1-1.09.79,6.17,6.17,0,0,1,1-.94l2.75-2.41c2.33-2,5.58-4.78,9.18-7.81l1.34-1.12a5.27,5.27,0,0,1,3.23-1.14h7l3.65.05A7.57,7.57,0,0,1,562.12,394.05Z" style="fill:#eb7741"></path><path d="M566,399.37a3.23,3.23,0,0,1-.91.22c-.59.1-1.45.24-2.52.39-2.13.32-5.1.72-8.42,1.15l.13-.06-.73.57c-2.79,2.22-5.34,4.2-7.2,5.61-.93.71-1.69,1.27-2.22,1.65a3.57,3.57,0,0,1-.86.55,3.82,3.82,0,0,1,.74-.71c.49-.43,1.21-1,2.11-1.78,1.8-1.49,4.31-3.51,7.11-5.72l.72-.57.06-.05h.07c3.33-.41,6.3-.76,8.45-1l2.53-.24A4,4,0,0,1,566,399.37Z" style="fill:#eb7741"></path><path d="M574.85,405.36a17.7,17.7,0,0,1-3,.45c-1.87.22-4.47.48-7.34.74l.11,0,0,0c-2.49,1.47-4.76,2.77-6.42,3.69a18.38,18.38,0,0,1-2.74,1.4A18.09,18.09,0,0,1,558,409.9c1.61-1,3.85-2.35,6.34-3.82l0,0,.06,0h0c2.88-.26,5.48-.46,7.36-.58A18.31,18.31,0,0,1,574.85,405.36Z" style="fill:#eb7741"></path></g></svg>