<svg xmlns="http://www.w3.org/2000/svg" viewBox="0 0 750 500"><g id="freepik--background-complete--inject-41"><path d="M286.65,366.21a37.65,37.65,0,0,1,9.72,2.56l7.15-6,12.27,9.35-3.86,8.48A37.93,37.93,0,0,1,317,389.3l9.29.82,2.07,15.29-8.73,3.26a37.56,37.56,0,0,1-2.57,9.72l6,7.15-9.34,12.27L305.21,434a37.72,37.72,0,0,1-8.69,5.06l-.81,9.29-15.29,2.07-3.26-8.73a37.74,37.74,0,0,1-9.73-2.57l-7.14,6L248,435.72l3.87-8.49a37.9,37.9,0,0,1-5.07-8.68l-9.28-.82-2.08-15.29,8.74-3.26a37.73,37.73,0,0,1,2.56-9.73l-6-7.14L250.11,370l8.48,3.87a38,38,0,0,1,8.69-5.07l.82-9.28,15.28-2.07,3.27,8.73Zm-4.59,21.08A16.55,16.55,0,1,0,298.69,400,16.55,16.55,0,0,0,282.06,387.29Z" style="fill:#e0e0e0;fill-rule:evenodd"></path><path d="M124.17,142.24V97.82a44.42,44.42,0,1,1-44.41,45.45Z" style="fill:#e0e0e0"></path><path d="M113.34,130.26l-44.42,1c0-11.57,4.52-23.7,12.58-32a45.66,45.66,0,0,1,31.15-13.42Z" style="fill:#f5f5f5"></path><path d="M613.07,37.09a37.65,37.65,0,0,1,9.72,2.56l7.15-6L642.21,43l-3.86,8.48a37.93,37.93,0,0,1,5.06,8.69l9.29.82,2.07,15.29L646,79.55a37.56,37.56,0,0,1-2.57,9.72l6,7.15-9.34,12.27-8.49-3.86a37.72,37.72,0,0,1-8.69,5.06l-.81,9.29-15.29,2.07-3.26-8.73a37.74,37.74,0,0,1-9.73-2.57l-7.14,6-12.28-9.34,3.87-8.49a37.9,37.9,0,0,1-5.07-8.68L564,88.61l-2.08-15.29,8.74-3.26a37.73,37.73,0,0,1,2.56-9.73l-6-7.14,9.35-12.28L585,44.78a38,38,0,0,1,8.69-5.07l.82-9.28,15.28-2.07,3.27,8.73Zm-4.59,21.08a16.55,16.55,0,1,0,16.63,12.66A16.55,16.55,0,0,0,608.48,58.17Z" style="fill:#e0e0e0;fill-rule:evenodd"></path></g><g id="freepik--Floor--inject-41"><path d="M710.77,463.91c0,.14-150.34.26-335.75.26s-335.79-.12-335.79-.26,150.31-.26,335.79-.26S710.77,463.77,710.77,463.91Z" style="fill:#263238"></path></g><g id="freepik--Gears--inject-41"><path d="M149.53,249.51a35.42,35.42,0,0,1,7.68,5.41l8.21-2.92,7.71,12.17L167,270.34a35.05,35.05,0,0,1,1.61,9.26l7.87,3.73-3.16,14.06-8.7,0a35.18,35.18,0,0,1-5.41,7.68l2.92,8.21L149.94,321l-6.18-6.14a35.73,35.73,0,0,1-9.25,1.61l-3.74,7.86-14.06-3.15,0-8.71a35.66,35.66,0,0,1-7.68-5.41l-8.2,2.92-7.72-12.17,6.15-6.17a35.88,35.88,0,0,1-1.61-9.26l-7.86-3.73,3.15-14.06,8.71,0A34.51,34.51,0,0,1,107,256.9l-2.92-8.21L116.29,241l6.17,6.15a35.4,35.4,0,0,1,9.26-1.62l3.73-7.86,14.06,3.15,0,8.71Zm-12.4,16.55a15.45,15.45,0,1,0,11.7,18.46A15.44,15.44,0,0,0,137.13,266.06Z" style="fill:#FF725E;fill-rule:evenodd"></path><g style="opacity:0.8"><path d="M149.53,249.51a35.42,35.42,0,0,1,7.68,5.41l8.21-2.92,7.71,12.17L167,270.34a35.05,35.05,0,0,1,1.61,9.26l7.87,3.73-3.16,14.06-8.7,0a35.18,35.18,0,0,1-5.41,7.68l2.92,8.21L149.94,321l-6.18-6.14a35.73,35.73,0,0,1-9.25,1.61l-3.74,7.86-14.06-3.15,0-8.71a35.66,35.66,0,0,1-7.68-5.41l-8.2,2.92-7.72-12.17,6.15-6.17a35.88,35.88,0,0,1-1.61-9.26l-7.86-3.73,3.15-14.06,8.71,0A34.51,34.51,0,0,1,107,256.9l-2.92-8.21L116.29,241l6.17,6.15a35.4,35.4,0,0,1,9.26-1.62l3.73-7.86,14.06,3.15,0,8.71Zm-12.4,16.55a15.45,15.45,0,1,0,11.7,18.46A15.44,15.44,0,0,0,137.13,266.06Z" style="fill:#fff;fill-rule:evenodd"></path></g><path d="M162,375.91a10.72,10.72,0,0,1,3.31,1,14.1,14.1,0,0,1,7.93,13.11,14.29,14.29,0,0,1-2.22,7.22,14.38,14.38,0,0,1-6.32,5.44A14.25,14.25,0,0,1,148.15,399a13.5,13.5,0,0,1-2.31-3.64,13.34,13.34,0,0,1-1.09-4,14.24,14.24,0,0,1,1.08-7.47,14.14,14.14,0,0,1,12.77-8.47,10.58,10.58,0,0,1,3.43.48c0,.1-1.22-.24-3.42-.16a13.92,13.92,0,0,0-8.45,3.33,13.68,13.68,0,0,0-4.68,12.2,12.84,12.84,0,0,0,1.06,3.76,13,13,0,0,0,2.2,3.44A13.54,13.54,0,0,0,164.41,402a13.76,13.76,0,0,0,6-5.11,13.63,13.63,0,0,0,1-13,14,14,0,0,0-6.21-6.63C163.24,376.21,162,376,162,375.91Z" style="fill:#263238"></path><path d="M173.24,360.94l0-.49c0-.36,0-.85,0-1.49,0-1.37-.05-3.33-.08-5.89l.1.12-12.74-2.78.23-.11c-1,2.16-2.14,4.56-3.35,7.13l-.06.13h-.14a31.94,31.94,0,0,0-8.3,1.48l-.15,0-.12-.12-5.6-5.54.36,0-11,7,.13-.37,2.66,7.41.07.19-.14.15a31.59,31.59,0,0,0-4.83,6.88l-.1.19h-.21L122,375l.35-.28c-.89,4-1.86,8.3-2.84,12.72l-.2-.42,7.11,3.37.21.1v.23a31.29,31.29,0,0,0,1.45,8.27l.07.23-.17.16-5.56,5.59.06-.49,7,11-.47-.16,7.42-2.65.23-.08.18.17a31.61,31.61,0,0,0,6.85,4.83h0l.21.35h0v3.94c0,1.32,0,2.63,0,3.93l-.31-.39,12.71,2.85-.44.22,3.38-7.11.1-.22h.24a31.3,31.3,0,0,0,8.27-1.43l.23-.07.16.17,5.58,5.56-.47-.05,11-7-.15.44-2.63-7.43-.07-.2.15-.16a32.09,32.09,0,0,0,4.85-6.87l.09-.18h8.09l-.33.26c1-4.47,2-8.69,2.88-12.71l.17.35-7.1-3.4-.16-.07v-.18a31.64,31.64,0,0,0-1.42-8.3l-.05-.16.11-.11,5.58-5.56,0,.29c-2.69-4.27-5-7.92-6.93-11l.21.07-7.44,2.6-.07,0-.06-.05a34.25,34.25,0,0,0-5-3.9l-1.36-.81a3.62,3.62,0,0,1-.45-.28,4.7,4.7,0,0,1,.48.22c.31.16.78.4,1.39.76a30.86,30.86,0,0,1,5.17,3.82l-.13,0,7.4-2.68.14,0,.08.12,7,11,.1.16-.13.13-5.54,5.6.06-.26a32.13,32.13,0,0,1,1.5,8.44l-.17-.25,7.12,3.36.23.11-.06.24c-.89,4-1.83,8.24-2.83,12.72l0,.26h-.27l-7.87,0,.3-.18a32.07,32.07,0,0,1-4.94,7l.08-.37,2.65,7.42.1.28-.25.16-11,7-.26.17-.22-.22-5.59-5.55.39.09a31.94,31.94,0,0,1-8.47,1.48l.34-.22-3.37,7.11-.14.29-.31-.07-12.72-2.85-.31-.07v-.32c0-1.3,0-2.61,0-3.93v-3.94h0c.43.7.12.19.21.35h0a32.59,32.59,0,0,1-7-5l.41.09L129.31,416l-.31.11-.17-.27c-2.39-3.79-4.76-7.53-7-11l-.16-.26.22-.23,5.56-5.58-.09.4a32.5,32.5,0,0,1-1.47-8.48l.21.33L119,387.65l-.27-.13.07-.29c1-4.42,2-8.72,2.87-12.72l.06-.28h8.16l-.3.18a32,32,0,0,1,4.95-7l-.07.34c-.91-2.6-1.81-5.13-2.62-7.43l-.09-.24.22-.13L143,353l.2-.13.16.16,5.56,5.58-.26-.07a32.48,32.48,0,0,1,8.44-1.44l-.2.14,3.4-7.1.08-.15.15,0,12.7,2.92.11,0v.1c0,2.53,0,4.48,0,5.84,0,.64,0,1.14,0,1.51A3.52,3.52,0,0,1,173.24,360.94Z" style="fill:#263238"></path><path d="M98.69,332.34a20.81,20.81,0,0,1,4.47,3.15l4.77-1.7,4.49,7.09-3.57,3.59a20.64,20.64,0,0,1,.93,5.39l4.58,2.17-1.83,8.19h-5.07a20.81,20.81,0,0,1-3.15,4.47l1.7,4.77L98.92,374l-3.59-3.57a20.71,20.71,0,0,1-5.39.93l-2.17,4.58-8.19-1.83V369a20.81,20.81,0,0,1-4.47-3.15l-4.78,1.7-4.49-7.09,3.58-3.59a21.15,21.15,0,0,1-.94-5.39l-4.57-2.17,1.83-8.19H70.8A20.47,20.47,0,0,1,74,336.64l-1.7-4.78,7.08-4.49,3.6,3.58a21,21,0,0,1,5.39-.94l2.17-4.57,8.18,1.83,0,5.07ZM91.47,342a9,9,0,1,0,6.81,10.75A9,9,0,0,0,91.47,342Z" style="fill:#FF725E;fill-rule:evenodd"></path><g style="opacity:0.4"><path d="M98.69,332.34a20.81,20.81,0,0,1,4.47,3.15l4.77-1.7,4.49,7.09-3.57,3.59a20.64,20.64,0,0,1,.93,5.39l4.58,2.17-1.83,8.19h-5.07a20.81,20.81,0,0,1-3.15,4.47l1.7,4.77L98.92,374l-3.59-3.57a20.71,20.71,0,0,1-5.39.93l-2.17,4.58-8.19-1.83V369a20.81,20.81,0,0,1-4.47-3.15l-4.78,1.7-4.49-7.09,3.58-3.59a21.15,21.15,0,0,1-.94-5.39l-4.57-2.17,1.83-8.19H70.8A20.47,20.47,0,0,1,74,336.64l-1.7-4.78,7.08-4.49,3.6,3.58a21,21,0,0,1,5.39-.94l2.17-4.57,8.18,1.83,0,5.07ZM91.47,342a9,9,0,1,0,6.81,10.75A9,9,0,0,0,91.47,342Z" style="fill:#fff;fill-rule:evenodd"></path></g><path d="M624.79,190.67a26.11,26.11,0,0,1,6.68,1.76l4.9-4.11,8.42,6.41-2.65,5.83a26,26,0,0,1,3.48,6l6.37.56,1.42,10.49-6,2.24a25.93,25.93,0,0,1-1.76,6.67l4.11,4.91-6.41,8.42-5.83-2.65a26,26,0,0,1-6,3.48L631,247l-10.49,1.42-2.24-6a25.93,25.93,0,0,1-6.67-1.76l-4.91,4.11-8.42-6.41,2.65-5.83a26,26,0,0,1-3.48-6l-6.37-.56-1.42-10.49,6-2.24a26.11,26.11,0,0,1,1.76-6.68l-4.11-4.9,6.41-8.42,5.83,2.65a26,26,0,0,1,6-3.48l.56-6.37,10.49-1.42,2.24,6Zm-3.14,14.47a11.36,11.36,0,1,0,11.4,8.69A11.36,11.36,0,0,0,621.65,205.14Z" style="fill:#263238;fill-rule:evenodd"></path><path d="M665.88,127.9a10.41,10.41,0,0,1,3.4-.18,13.68,13.68,0,0,1,8.33,3.88,13.83,13.83,0,0,1,3.43,5.46,14,14,0,0,1,.43,7.4,14.15,14.15,0,0,1-4,7.15A14,14,0,0,1,661,153.85a12.89,12.89,0,0,1-3.36-2.56,13.35,13.35,0,0,1-2.37-3.28,14,14,0,0,1-1.55-7.24,13.85,13.85,0,0,1,1.85-6.18,13.6,13.6,0,0,1,7-6,10.33,10.33,0,0,1,3.31-.73,32.81,32.81,0,0,0-3.2,1,13.71,13.71,0,0,0-6.63,6,13.42,13.42,0,0,0-.13,12.81,13.43,13.43,0,0,0,5.45,5.5,13.28,13.28,0,0,0,15.6-2.12,13.27,13.27,0,0,0,3.79-6.76,13.38,13.38,0,0,0-3.55-12.3,13.6,13.6,0,0,0-8-4A33.32,33.32,0,0,0,665.88,127.9Z" style="fill:#263238"></path><path d="M671.08,110.31a4.39,4.39,0,0,1-.19-.44l-.54-1.36c-.49-1.25-1.18-3.05-2.09-5.39l.14.09L655.74,105l.17-.18c-.19,2.33-.41,4.92-.64,7.69v.14l-.13,0a31.27,31.27,0,0,0-7.13,4.19l-.13.1-.14-.07-7-3.18.34-.09-7.71,10.19v-.39l5,5.92.13.15-.08.18a31,31,0,0,0-2.09,8l0,.21L636,138l-7.23,2.71.23-.37c.54,4,1.13,8.26,1.73,12.66l-.33-.32,7.69.67.23,0,.09.21a30.83,30.83,0,0,0,4.15,7.11l.14.18-.1.21c-1,2.21-2.09,4.61-3.2,7l-.11-.46,10.17,7.73-.49,0,5.92-5,.18-.15.22.09a31.19,31.19,0,0,0,8,2.1h0l.32.25h0v0l0,.06,0,.11.09.23.17.46.34.91.67,1.81,1.35,3.61-.42-.25,12.67-1.72-.34.35q.34-3.89.68-7.69l0-.23.22-.09a31.42,31.42,0,0,0,7.11-4.14l.18-.15.21.1,7,3.21-.45.11L701,159.25v.45l-5-5.92-.14-.17.09-.2a31.37,31.37,0,0,0,2.11-8l0-.2.19-.08,7.24-2.69-.21.35c-.6-4.45-1.16-8.66-1.69-12.66l.27.25-7.69-.69-.17,0-.07-.15a31.11,31.11,0,0,0-4.14-7.15l-.09-.13.06-.14,3.23-7,.07.28L685,107.62h.22l-5.95,4.93-.06,0-.07,0a33,33,0,0,0-6-1.86l-1.52-.29a2.39,2.39,0,0,1-.51-.1l.52,0c.34,0,.85.1,1.54.22a31,31,0,0,1,6.05,1.75l-.13,0,5.89-5,.1-.09.12.09,10.2,7.69.15.12-.08.17-3.18,7,0-.27a31.32,31.32,0,0,1,4.25,7.25l-.23-.17,7.69.65.24,0,0,.23c.56,4,1.13,8.21,1.75,12.67l0,.25-.24.1-7.23,2.71.22-.27a31.91,31.91,0,0,1-2.14,8.14l-.06-.36,5,5.92.19.22-.18.23-7.73,10.18-.18.24-.27-.13-7-3.2.39,0a31.85,31.85,0,0,1-7.29,4.25l.24-.32c-.22,2.54-.45,5.1-.67,7.69l0,.31-.31,0L666,180.43l-.32,0-.1-.3-1.35-3.6-.68-1.82-.34-.91-.17-.45-.09-.23,0-.11,0-.06v0h0l.32.25h0a32.23,32.23,0,0,1-8.15-2.15l.41-.07-5.93,5-.24.21L649,176l-10.17-7.75-.25-.19.13-.28c1.11-2.42,2.21-4.82,3.21-7l.05.39a31.8,31.8,0,0,1-4.24-7.29l.31.23-7.69-.69-.3,0,0-.29c-.6-4.4-1.17-8.69-1.71-12.67l0-.28.26-.1,7.23-2.69-.21.28a31.26,31.26,0,0,1,2.16-8.14l0,.33-4.95-5.93-.16-.19.15-.19,7.77-10.16.13-.18.21.1,7,3.22-.27,0a31.59,31.59,0,0,1,7.27-4.2l-.14.19c.25-2.77.49-5.36.71-7.69v-.16l.16,0L668.36,103l.1,0,0,.1,1.94,5.38.49,1.4A3.12,3.12,0,0,1,671.08,110.31Z" style="fill:#263238"></path></g><g id="freepik--magnifying-glass--inject-41"><path d="M151.42,358.54a46.76,46.76,0,1,1,46.51-51.72h0a46.79,46.79,0,0,1-46.51,51.72Zm.11-86.51a41.29,41.29,0,0,0-4.3.23,39.61,39.61,0,1,0,4.3-.23Z" style="fill:#455a64"></path><path d="M220.71,401.74a3.45,3.45,0,0,1-2.66-1.23l-44.21-51.87a3.5,3.5,0,1,1,5.33-4.54L223.37,396a3.49,3.49,0,0,1-2.66,5.77Z" style="fill:#455a64"></path></g><g id="freepik--Plant--inject-41"><path d="M644.21,398.83c7.19,2.51,16.58.27,22.73-4.23s10.59-10.94,14.52-17.47c1.67-2.79,3.31-5.69,3.84-8.9s-.25-6.82-2.74-8.92c-3.87-3.25-9.8-1.6-14.19.9a48.91,48.91,0,0,0-24.16,38.62" style="fill:#FF725E"></path><path d="M651.93,416.05c4.32,5.7,11.75,8.24,18.9,8.57s14.2-1.64,20.88-4.2c2.43-.93,5.08-2.21,5.91-4.67a5.92,5.92,0,0,0-1.27-5.5,12.24,12.24,0,0,0-4.82-3.29,32.89,32.89,0,0,0-21-1.13c-6.92,1.79-13,5.8-18.58,10.22" style="fill:#FF725E"></path><path d="M644.1,368c6,.12,10.47-5.1,13.16-10.41a38.57,38.57,0,0,0,3.55-24.06c-.54-3-1.69-6.33-4.42-7.8s-6.37-.5-8.69,1.62-3.59,5.14-4.52,8.14c-3.2,10.35-2.51,22.24.92,32.51" style="fill:#FF725E"></path><path d="M624.53,401c10.16-17.29,11.85-38.44,5.85-57.57-1-3.1-2.81-6.65-6-6.86-3.6-.22-5.85,3.78-6.84,7.24-3.48,12.15-2.74,25.06-2,37.67.47,7.77,3.14,14.41,9,19.52" style="fill:#FF725E"></path><path d="M614,408.06a41.55,41.55,0,0,0-24.64-26.14c-2.7-1-6.13-1.59-8.14.47s-1.37,5.41-.1,7.94c2,4.08,5.36,7.36,8.67,10.51,3,2.86,6.13,5.73,9.94,7.4s10.79,2.09,14.27-.18" style="fill:#FF725E"></path><path d="M676.94,363.65s-.05.06-.18.16l-.54.42-2.13,1.59L672.54,367c-.55.43-1.13.93-1.77,1.45-1.25,1-2.74,2.18-4.24,3.6l-2.39,2.17c-.83.77-1.63,1.62-2.49,2.48-1.75,1.68-3.44,3.64-5.26,5.66a123.68,123.68,0,0,0-10.47,14.28,121.83,121.83,0,0,0-8.09,15.76c-1,2.53-2,4.92-2.72,7.24-.38,1.15-.79,2.25-1.1,3.33s-.6,2.12-.88,3.11c-.6,2-1,3.81-1.32,5.41-.18.8-.37,1.54-.5,2.22l-.33,1.9c-.2,1.1-.36,2-.47,2.61l-.14.68a.79.79,0,0,1-.06.23,1.08,1.08,0,0,1,0-.24c0-.18.06-.4.09-.68.09-.64.22-1.52.38-2.64.09-.57.19-1.21.29-1.9s.3-1.43.46-2.24c.36-1.6.68-3.45,1.27-5.43.27-1,.55-2,.85-3.14s.7-2.19,1.07-3.35c.71-2.33,1.7-4.73,2.69-7.28A109.15,109.15,0,0,1,656.06,382c1.83-2,3.54-4,5.31-5.66.87-.85,1.68-1.71,2.52-2.46s1.65-1.48,2.42-2.16c1.51-1.42,3-2.53,4.3-3.56.64-.51,1.23-1,1.79-1.42l1.58-1.11,2.18-1.52.58-.38C676.87,363.68,676.94,363.64,676.94,363.65Z" style="fill:#263238"></path><path d="M690.39,411.57a6.08,6.08,0,0,1-.7-.12c-.45-.08-1.11-.26-2-.4a53.86,53.86,0,0,0-50.92,17.23,53.51,53.51,0,0,0-4.55,5.85c-.51.71-.85,1.3-1.11,1.68a3,3,0,0,1-.41.58,4.75,4.75,0,0,1,.33-.63c.24-.39.55-1,1-1.73a48.2,48.2,0,0,1,4.44-6,52.79,52.79,0,0,1,43.84-18.24,48.8,48.8,0,0,1,7.37,1.06c.87.17,1.52.37,2,.49A3.2,3.2,0,0,1,690.39,411.57Z" style="fill:#263238"></path><path d="M652.88,332.64a.74.74,0,0,1,0,.26c0,.21-.09.46-.16.78-.16.71-.38,1.71-.67,3-.58,2.58-1.47,6.31-2.6,10.91-2.23,9.2-5.49,21.87-8.87,35.91-1.69,7-3.21,13.74-4.52,19.85s-2.39,11.66-3.21,16.32c-.44,2.32-.77,4.44-1.08,6.29s-.56,3.46-.76,4.77-.35,2.28-.46,3c-.06.32-.1.58-.14.78a.85.85,0,0,1-.06.26,1.37,1.37,0,0,1,0-.27c0-.2,0-.46.09-.79.09-.72.22-1.73.38-3s.38-2.92.68-4.78.59-4,1-6.31c.77-4.67,1.84-10.21,3.11-16.35s2.8-12.84,4.48-19.87c3.39-14.05,6.69-26.71,9-35.89,1.15-4.56,2.08-8.27,2.74-10.87.32-1.25.58-2.24.76-2.95.08-.32.15-.57.2-.77S652.87,332.63,652.88,332.64Z" style="fill:#263238"></path><path d="M629.56,433.37a.8.8,0,0,1-.07-.21c0-.16-.08-.37-.14-.62-.12-.59-.29-1.39-.5-2.41-.43-2.09-1-5.12-1.65-8.88-1.3-7.52-2.85-18-3.8-29.58-.46-5.81-.71-11.36-.82-16.41s0-9.6.11-13.41c0-1.91.18-3.63.26-5.15s.18-2.81.28-3.88.17-1.84.23-2.44c0-.26,0-.47.07-.64a.11.11,0,1,1,.05,0q0,.25,0,.63c0,.61-.07,1.42-.13,2.46s-.15,2.36-.2,3.88-.16,3.23-.19,5.14c-.11,3.81-.12,8.35,0,13.39s.4,10.58.86,16.38c1,11.59,2.44,22,3.65,29.56.61,3.77,1.13,6.81,1.51,8.91.17,1,.31,1.83.41,2.42,0,.26.07.46.09.63A.74.74,0,0,1,629.56,433.37Z" style="fill:#263238"></path><path d="M630.31,435.57a2.77,2.77,0,0,1-.26-.6c-.17-.44-.4-1-.67-1.74-.15-.38-.31-.8-.48-1.25l-.65-1.47c-.24-.52-.48-1.08-.75-1.67s-.6-1.2-.92-1.85l-1-2-1.23-2.12c-.82-1.49-1.87-3-2.89-4.59a109.24,109.24,0,0,0-7.65-9.78,121.06,121.06,0,0,0-8.78-8.78c-1.46-1.23-2.8-2.47-4.15-3.5l-1.92-1.53-1.83-1.35c-1.15-.87-2.23-1.6-3.19-2.24s-1.76-1.2-2.46-1.61l-1.57-1a2.42,2.42,0,0,1-.53-.38,5.87,5.87,0,0,1,.58.29l1.62.93c.71.39,1.55.91,2.51,1.55s2.07,1.33,3.24,2.19l1.85,1.33,2,1.51c1.37,1,2.72,2.25,4.19,3.48a112.49,112.49,0,0,1,8.85,8.8,104.81,104.81,0,0,1,7.65,9.84c1,1.63,2.06,3.13,2.87,4.64.42.74.82,1.45,1.22,2.14l1,2c.31.66.65,1.26.9,1.87l.71,1.7.62,1.48c.16.46.31.89.44,1.28l.59,1.77A2.67,2.67,0,0,1,630.31,435.57Z" style="fill:#263238"></path><path d="M673.17,383.7c0,.07-1.23.07-3.2.18a60,60,0,0,0-7.67.93,61,61,0,0,0-7.48,1.95c-1.87.62-3,1.07-3.05,1a3.37,3.37,0,0,1,.76-.41c.51-.24,1.25-.56,2.18-.91A45.5,45.5,0,0,1,670,383.55c1,0,1.81,0,2.36,0A3.07,3.07,0,0,1,673.17,383.7Z" style="fill:#263238"></path><path d="M680.84,421.12a29.86,29.86,0,0,0-4.18-6.3,29.32,29.32,0,0,0-6-4.64,7.31,7.31,0,0,1,2.06.91,18.22,18.22,0,0,1,7.34,7.91A7.29,7.29,0,0,1,680.84,421.12Z" style="fill:#263238"></path><path d="M654.71,346.67c.1.1-1.78,2-3.82,4.47s-3.49,4.71-3.61,4.63a21.33,21.33,0,0,1,3.24-4.94A20.85,20.85,0,0,1,654.71,346.67Z" style="fill:#263238"></path><path d="M648.57,336.07a34.81,34.81,0,0,1,1.38,8.1,18,18,0,0,1-.92-4A17.51,17.51,0,0,1,648.57,336.07Z" style="fill:#263238"></path><path d="M629.57,369.33a100.26,100.26,0,0,1-6.37,12.29,98.37,98.37,0,0,1,6.37-12.29Z" style="fill:#263238"></path><path d="M618.26,358a55.51,55.51,0,0,1,4.61,9.26,29.8,29.8,0,0,1-2.52-4.52A28.27,28.27,0,0,1,618.26,358Z" style="fill:#263238"></path><path d="M601.64,396.65c0,.14-2-.26-4.56-.43s-4.56-.08-4.58-.22a13.37,13.37,0,0,1,4.61-.26A13.11,13.11,0,0,1,601.64,396.65Z" style="fill:#263238"></path><path d="M613,430.78l5.66,29.74a4.16,4.16,0,0,0,4.09,3.39h16.71a4.17,4.17,0,0,0,4.11-3.49l4.91-29.64Z" style="fill:#263238"></path><polygon points="614.83 440.45 646.77 440.45 648.47 430.79 612.99 430.79 614.83 440.45" style="fill:#455a64"></polygon><polygon points="614.83 440.45 615.5 443.97 646.29 443.97 646.77 440.45 614.83 440.45" style="fill:#fafafa"></polygon></g><g id="freepik--Character--inject-41"><path d="M509.78,435.54l.5,18.18s18.65,5.59,19.07,8.94l-35.21,2.25-1.95-28.29Z" style="fill:#FF725E"></path><path d="M499.3,452.89a1.44,1.44,0,0,0-.89,1.7,1.38,1.38,0,0,0,1.68.9,1.52,1.52,0,0,0,.93-1.81,1.44,1.44,0,0,0-1.85-.74" style="fill:#e0e0e0"></path><g style="opacity:0.6000000000000001"><path d="M494.14,464.91l-.09-2.86,33.8-1.09s1.61.59,1.5,1.7Z" style="fill:#fff"></path></g><path d="M510.84,453.51c0,.17-.85.3-1.66.91s-1.21,1.36-1.38,1.3,0-1.07,1-1.79S510.87,453.35,510.84,453.51Z" style="fill:#263238"></path><path d="M514.63,454.8c0,.16-.67.5-1.21,1.27s-.66,1.54-.83,1.54-.34-1,.34-1.9S514.62,454.63,514.63,454.8Z" style="fill:#263238"></path><path d="M517,459.08c-.15.05-.45-.79-.07-1.76s1.17-1.4,1.25-1.26-.39.67-.69,1.47S517.18,459.06,517,459.08Z" style="fill:#263238"></path><path d="M510.27,449.38c-.07.16-.87,0-1.84.1s-1.7.48-1.8.34.59-.8,1.73-.94S510.34,449.23,510.27,449.38Z" style="fill:#263238"></path><path d="M510.1,445.71a3.35,3.35,0,0,1-1.77.1,7.79,7.79,0,0,1-1.88-.45,7.92,7.92,0,0,1-1.05-.47,2.28,2.28,0,0,1-.55-.38.75.75,0,0,1-.14-.91.93.93,0,0,1,.73-.44,2.27,2.27,0,0,1,.66,0,6.11,6.11,0,0,1,1.12.31,6,6,0,0,1,1.7,1c.86.7,1.18,1.33,1.13,1.36s-.51-.45-1.38-1A7.28,7.28,0,0,0,507,444a6.46,6.46,0,0,0-1-.25c-.38-.08-.7-.06-.78.11s0,.1,0,.2a1.91,1.91,0,0,0,.41.28,9.4,9.4,0,0,0,1,.47,9,9,0,0,0,1.75.54A13.15,13.15,0,0,1,510.1,445.71Z" style="fill:#263238"></path><path d="M509.89,446a2.81,2.81,0,0,1-.58-1.67,5.82,5.82,0,0,1,.12-1.95,6.25,6.25,0,0,1,.38-1.1,1.48,1.48,0,0,1,1.07-1,.83.83,0,0,1,.77.44,2.44,2.44,0,0,1,.22.64,4,4,0,0,1,.08,1.19,4.14,4.14,0,0,1-.64,1.87c-.63.95-1.33,1.2-1.35,1.15s.51-.46,1-1.37a3.84,3.84,0,0,0,.36-2.71c-.08-.37-.24-.66-.38-.61s-.45.31-.58.61a5.69,5.69,0,0,0-.37,1,6.26,6.26,0,0,0-.23,1.78C509.76,445.31,510,445.94,509.89,446Z" style="fill:#263238"></path><path d="M435.26,434.75l-2.12,23.35-7,18a2.41,2.41,0,0,0,1.53,3.17h0a2.39,2.39,0,0,0,2.16-.38c3.95-3,18.4-14.13,18.46-15.85.07-2,3.87-24.49,3.87-24.49Z" style="fill:#FF725E"></path><g style="opacity:0.6000000000000001"><path d="M427.66,479.26l20.8-17.8-.11,1a3.63,3.63,0,0,1-1.12,2.23c-1.68,1.57-6.4,5.8-17.34,14.21a2.38,2.38,0,0,1-2.23.37Z" style="fill:#fff"></path></g><g style="opacity:0.6000000000000001"><path d="M444.53,453.4a1.47,1.47,0,0,0-.61,1.84,1.4,1.4,0,0,0,1.82.62,1.53,1.53,0,0,0,.64-1.95,1.44,1.44,0,0,0-2-.44" style="fill:#fff"></path></g><path d="M434.14,469.68c-.14.05-.52-1.23-1.84-2a7.46,7.46,0,0,0-2.62-.82c0-.06.3-.21.86-.22a3.71,3.71,0,0,1,2,.61,3.81,3.81,0,0,1,1.41,1.6C434.2,469.32,434.2,469.67,434.14,469.68Z" style="fill:#263238"></path><path d="M432.13,472.62c-.13.08-.79-.76-1.95-1.24a16.76,16.76,0,0,0-2.25-.55,2.66,2.66,0,0,1,2.45.07C431.7,471.46,432.25,472.57,432.13,472.62Z" style="fill:#263238"></path><path d="M437.69,466a25.48,25.48,0,0,0-2.88-2.12,23.43,23.43,0,0,0-3.37-1.19,6.56,6.56,0,0,1,6.25,3.31Z" style="fill:#263238"></path><path d="M438.92,459c-.07.13-1.3-.55-3-.8s-3,0-3.07-.15a6,6,0,0,1,6,.95Z" style="fill:#263238"></path><path d="M439.72,452.15a11.82,11.82,0,0,0-3.07-.92,11.7,11.7,0,0,0-3.18.43c0-.06.26-.32.83-.57a5.25,5.25,0,0,1,4.69.37C439.52,451.8,439.76,452.1,439.72,452.15Z" style="fill:#263238"></path><path d="M436.84,449.94a2,2,0,0,1,.07-.89,6,6,0,0,1,1-2.23,2.75,2.75,0,0,1,1.31-1.16,1,1,0,0,1,1.06.34,1.58,1.58,0,0,1,.25,1.09,3.39,3.39,0,0,1-3.31,2.78,3.93,3.93,0,0,1-3.62-2.48,1.39,1.39,0,0,1,.07-1.14.94.94,0,0,1,1-.38,3.33,3.33,0,0,1,1.44,1,7,7,0,0,1,1.39,2,2.08,2.08,0,0,1,.26.85,10.23,10.23,0,0,0-1.9-2.58,3.23,3.23,0,0,0-1.28-.82.52.52,0,0,0-.57.21,1,1,0,0,0,0,.75,3.51,3.51,0,0,0,3.16,2.12A3,3,0,0,0,440,447a1.22,1.22,0,0,0-.14-.78.55.55,0,0,0-.59-.19,2.44,2.44,0,0,0-1.12,1A8.9,8.9,0,0,0,436.84,449.94Z" style="fill:#263238"></path><polygon points="429.94 267.87 428.55 450.01 454.17 451.65 459.56 299.5 490.26 450.79 513.54 448.34 488.77 267.84 429.94 267.87" style="fill:#263238"></polygon><path d="M461.08,120a15.51,15.51,0,0,0-16.7,14.53c-.43,7.21-.83,15-.78,18.94.1,8.43,8.54,9.74,8.54,9.74s-.21,2.5-.44,5.6a11.11,11.11,0,0,0,10.56,11.93h0a11.11,11.11,0,0,0,11.6-10.6l1.53-34A15.52,15.52,0,0,0,461.08,120Z" style="fill:#b78876"></path><path d="M452.12,163.08a19.65,19.65,0,0,0,11-3.13s-2.6,6.07-11,5.31Z" style="fill:#aa6550"></path><path d="M474.61,139.06c.15-.06,5.8-1.71,5.61,4.05s-5.93,4.39-5.94,4.23S474.61,139.06,474.61,139.06Z" style="fill:#b78876"></path><path d="M476.11,145.21s.1.07.27.16a1,1,0,0,0,.75,0,2.49,2.49,0,0,0,1.22-2.2,3.36,3.36,0,0,0-.23-1.44,1.2,1.2,0,0,0-.73-.8.52.52,0,0,0-.61.26c-.08.16,0,.27-.08.28s-.12-.1-.06-.34a.62.62,0,0,1,.24-.35.74.74,0,0,1,.56-.13,1.43,1.43,0,0,1,1,.93,3.4,3.4,0,0,1,.29,1.62,2.6,2.6,0,0,1-1.54,2.44,1.11,1.11,0,0,1-.92-.18C476.12,145.35,476.09,145.22,476.11,145.21Z" style="fill:#aa6550"></path><path d="M446.52,139.88a1.21,1.21,0,0,0,1.16,1.22,1.15,1.15,0,0,0,1.24-1.09,1.19,1.19,0,0,0-1.16-1.21A1.15,1.15,0,0,0,446.52,139.88Z" style="fill:#263238"></path><path d="M446.55,137.53c.15.15,1.06-.52,2.36-.52s2.25.65,2.39.49-.09-.35-.5-.65a3.33,3.33,0,0,0-1.91-.59,3.11,3.11,0,0,0-1.88.61C446.61,137.17,446.48,137.46,446.55,137.53Z" style="fill:#263238"></path><path d="M459.26,139.88a1.2,1.2,0,0,0,1.16,1.22,1.15,1.15,0,0,0,1.24-1.09,1.2,1.2,0,0,0-1.16-1.21A1.15,1.15,0,0,0,459.26,139.88Z" style="fill:#263238"></path><path d="M459.29,137.77c.15.15,1.06-.52,2.36-.52s2.24.65,2.38.5-.08-.36-.49-.66a3.36,3.36,0,0,0-1.91-.59,3.18,3.18,0,0,0-1.88.61C459.35,137.41,459.22,137.7,459.29,137.77Z" style="fill:#263238"></path><path d="M454.59,147.38a8,8,0,0,0-2.11-.38c-.33,0-.64-.1-.7-.33a1.76,1.76,0,0,1,.22-1l1-2.52a44.26,44.26,0,0,0,2.2-6.59,43.22,43.22,0,0,0-2.72,6.4l-.94,2.53a1.89,1.89,0,0,0-.17,1.3.84.84,0,0,0,.54.49,2.44,2.44,0,0,0,.56.07A9,9,0,0,0,454.59,147.38Z" style="fill:#263238"></path><path d="M458.4,148.27c-.21,0-.21,1.4-1.42,2.4s-2.7.84-2.71,1,.34.27,1,.29a3.5,3.5,0,0,0,2.26-.79,3.06,3.06,0,0,0,1.1-2C458.65,148.61,458.5,148.26,458.4,148.27Z" style="fill:#263238"></path><path d="M459,132.69c.12.35,1.42.18,2.94.37s2.75.6,3,.28c.09-.15-.13-.48-.62-.82a4.93,4.93,0,0,0-2.19-.77,5,5,0,0,0-2.3.27C459.18,132.25,458.9,132.52,459,132.69Z" style="fill:#263238"></path><path d="M447,133.78c.23.29,1.12,0,2.19,0s2,.2,2.19-.11c.1-.15-.05-.44-.44-.72a3,3,0,0,0-1.79-.48,3.06,3.06,0,0,0-1.75.59C447.05,133.33,446.93,133.63,447,133.78Z" style="fill:#263238"></path><path d="M475.27,138.8a9.46,9.46,0,0,1-.14,2.76,3,3,0,0,1-1.47,2.11c-1.45.72-3.27-.39-3.92-1.87a9.67,9.67,0,0,1-.32-4.79,23.16,23.16,0,0,0-.1-6.6,9.47,9.47,0,0,0-3.16-5.65,6,6,0,0,0-6.21-.9,33.38,33.38,0,0,0-3.28,2.42,5.08,5.08,0,0,1-3.49.88,3.27,3.27,0,0,1-2.67-2.23,3.54,3.54,0,0,1,1.36-3.53,8.1,8.1,0,0,1,3.68-1.48,19.78,19.78,0,0,1,10.94.85,14.27,14.27,0,0,1,7.94,7.39c1.68,3.94,1.46,6.35,1,10.64" style="fill:#263238"></path><path d="M357.84,183l12.29,2.48L387,196.2l-5.76,11s-5.95-1.66-7.68-3.2a7,7,0,0,0-3.66-1.7s.11,2.71-1.94,2.24-5.5-1.05-4.91-4a2.23,2.23,0,0,1-1.45-2.44s-1.7-.13-1.24-2.94,2.49-6.45,8.1-5.42c.29.06.68-.5.17-.69L360,187S354.57,184.89,357.84,183Z" style="fill:#b78876"></path><path d="M363.91,195.06a8.75,8.75,0,0,1,2.06.5,18.6,18.6,0,0,1,2.2.75,1.85,1.85,0,0,1,1,1.14,1.53,1.53,0,0,1-.59,1.54,3.64,3.64,0,0,1-2.9.38,19.08,19.08,0,0,1-2.27-.47,6.18,6.18,0,0,1-2-.79,16.38,16.38,0,0,1,2.06.43c.63.13,1.39.25,2.24.35a7.17,7.17,0,0,0,1.3.09,2.11,2.11,0,0,0,1.21-.4,1,1,0,0,0,.42-1,1.4,1.4,0,0,0-.73-.84c-.71-.36-1.5-.58-2.09-.82A9.35,9.35,0,0,1,363.91,195.06Z" style="fill:#aa6550"></path><path d="M366.91,193.47c0,.15-.75.17-1.47.63s-1.07,1.1-1.21,1.05,0-.93.93-1.49S367,193.33,366.91,193.47Z" style="fill:#aa6550"></path><path d="M368.21,198.86s.13,0,.28.16.22.53.27.84a1.62,1.62,0,0,1-.36,1.31,1.68,1.68,0,0,1-1.59.47,18.79,18.79,0,0,1-2.7-.54c-.68-.22-1.05-.46-1-.53s.44.05,1.11.17,1.63.23,2.67.38a1.24,1.24,0,0,0,1.17-.27,1.35,1.35,0,0,0,.35-1c0-.38,0-.6-.07-.75S368.18,198.88,368.21,198.86Z" style="fill:#aa6550"></path><path d="M368.11,201.12c0-.06.23-.17.6-.07a2.28,2.28,0,0,1,1.1.88,1.6,1.6,0,0,1,.13,1.45c-.12.34-.27.5-.33.48s-.05-.24,0-.56a1.72,1.72,0,0,0-.19-1.07,3.29,3.29,0,0,0-.83-.84C368.32,201.23,368.11,201.2,368.11,201.12Z" style="fill:#aa6550"></path><path d="M377.56,194.76l-5.93-.25-6.23,1.22s-.52,1.13,2.37,1.9a14,14,0,0,0,5.55.27s2.57,3.74,5.91,4.61" style="fill:#b78876"></path><path d="M379.23,202.51a1.79,1.79,0,0,1-.55-.1,7.14,7.14,0,0,1-1.44-.62,13.51,13.51,0,0,1-4.11-3.77l.23.1a13.07,13.07,0,0,1-6.83-.64,3.52,3.52,0,0,1-1-.62,1.18,1.18,0,0,1-.39-1.24l0-.12.15,0,6.24-1.17h.05c1.8.1,3.28.19,4.31.27a8.07,8.07,0,0,1,1.61.19,8.23,8.23,0,0,1-1.62.05c-1,0-2.52,0-4.32-.09h.05L365.44,196l.19-.15a.72.72,0,0,0,.28.65,2.72,2.72,0,0,0,.84.52,13,13,0,0,0,6.53.67l.15,0,.08.12a14.56,14.56,0,0,0,3.87,3.79C378.49,202.27,379.26,202.44,379.23,202.51Z" style="fill:#aa6550"></path><path d="M370.32,191.28c-.08.12-.65-.14-1.08-.75s-.49-1.23-.35-1.27.4.44.78,1S370.41,191.16,370.32,191.28Z" style="fill:#aa6550"></path><path d="M435.47,269.28c10.21,4.41,22.15,5.72,35.63,4.29L481,173l-7-5.37-16.14,12-5.52-11.56-12.95,18.61Z" style="fill:#f5f5f5"></path><path d="M452.42,274.12s0-.07-.06-.23-.07-.43-.11-.71c-.09-.67-.22-1.59-.38-2.75s-.18-2.66-.29-4.36-.08-3.65-.13-5.8c-.06-8.58.52-20.43,1.47-33.49s2.14-24.86,3.1-33.39c.47-4.26.9-7.7,1.23-10.08.16-1.19.31-2.11.41-2.73,0-.29.09-.52.12-.71l.06-.24a.78.78,0,0,1,0,.25c0,.19,0,.42-.08.71-.07.67-.18,1.59-.31,2.74-.26,2.43-.62,5.87-1.07,10.1-.85,8.54-2,20.33-2.94,33.39s-1.58,24.88-1.62,33.45c0,2.15,0,4.09.05,5.79s.15,3.15.2,4.36.21,2.07.28,2.74l.06.72A1.08,1.08,0,0,1,452.42,274.12Z" style="fill:#263238"></path><path d="M466,288.94s-7.52-78.61-2.86-87.39c3.61-6.8,9.2-21,11.54-27.06a7.32,7.32,0,0,0-.15-5.61l-.55-1.24,7,5.37,14.37,7.73-8.68,66.59,9.83,33.79Z" style="fill:#FF725E"></path><g style="opacity:0.30000000000000004"><path d="M464.06,266.18c6.11-1.28,3.47,2.27,9.65,1.37,3.34-.48,3.51-2.44,6.26-4.39a18.92,18.92,0,0,1,10.28-3.52l-1.37-4.71-25.56.95Z"></path></g><path d="M428.84,184.54l2.49,62.79-5,35.15,12.59,4.66L444.39,190a26.18,26.18,0,0,1,2.37-10.45l4.94-10.76L435,174.49Z" style="fill:#FF725E"></path><path d="M495.35,180.74s7.88,6.82,9.66,16c1.29,6.69,5.1,30.15,6.16,42.2a14.21,14.21,0,0,1-12,15.34l-.34,0c-11.43,1.56-30.62-.6-30.62-.6l3.34-14.6s17-2.45,20-4.5l-4.05-27.09S490.82,181.52,495.35,180.74Z" style="fill:#FF725E"></path><path d="M388.15,194.09,416,211.7s10-29.41,16.44-36.33l7.75-2.63-7.07,56.44a11.46,11.46,0,0,1-5.1,7.76h0a11.49,11.49,0,0,1-13.44-.73l-34-27.59Z" style="fill:#FF725E"></path><path d="M496.61,243.78a13.12,13.12,0,0,1-.16-1.64,10.08,10.08,0,0,0-3.77-6.6,12.62,12.62,0,0,1-1.33-1,3.44,3.44,0,0,1,1.54.68,8.77,8.77,0,0,1,3.92,6.87A3.35,3.35,0,0,1,496.61,243.78Z" style="fill:#263238"></path><path d="M493.63,245.71a21.15,21.15,0,0,0-.07-5.91,21.84,21.84,0,0,0-2.18-5.48,4.38,4.38,0,0,1,1.12,1.38,12.16,12.16,0,0,1,1.65,8.3A4.36,4.36,0,0,1,493.63,245.71Z" style="fill:#263238"></path><path d="M493.41,183.49a22.32,22.32,0,0,0-3,3,19.39,19.39,0,0,0-3.71,9.48,39.85,39.85,0,0,0,.37,10.33c.18,1.23.34,2.27.47,3.12a5.48,5.48,0,0,1,.12,1.16,4.87,4.87,0,0,1-.32-1.12c-.17-.73-.4-1.79-.64-3.11a35.84,35.84,0,0,1-.52-10.45,18.67,18.67,0,0,1,3.94-9.64,12.28,12.28,0,0,1,2.32-2.19A4.08,4.08,0,0,1,493.41,183.49Z" style="fill:#263238"></path><g style="opacity:0.30000000000000004"><path d="M491.75,234.39a9.21,9.21,0,0,1,2,5.6,17.32,17.32,0,0,1-1,6,1.3,1.3,0,0,0,0,1.09.88.88,0,0,0,1.26.05,2.54,2.54,0,0,0,.63-1.28c-.24.27.11.73.47.71a1.19,1.19,0,0,0,.83-.63,6.56,6.56,0,0,0,.23-5.95,17,17,0,0,0-3.6-5"></path></g><path d="M421.62,222.71A30.58,30.58,0,0,1,416,211.63c.14,0,1.16,2.54,2.72,5.6S421.75,222.62,421.62,222.71Z" style="fill:#263238"></path><path d="M417.72,224.83A7.25,7.25,0,0,1,417,223a49.77,49.77,0,0,1-1.74-9.49,7.15,7.15,0,0,1,0-2c.15,0,.49,3,1.17,6.7S417.87,224.79,417.72,224.83Z" style="fill:#263238"></path><path d="M431.33,192.44c.15,0,.26,12.29.26,27.44s-.11,27.45-.26,27.45-.26-12.28-.26-27.45S431.19,192.44,431.33,192.44Z" style="fill:#263238"></path><path d="M448.26,170a2.6,2.6,0,0,1-.33.48l-1,1.36c-.84,1.2-2.06,2.94-3.36,5.23a31.74,31.74,0,0,0-3.56,8.47c-.31,1.68-.51,3.55-.79,5.45-.83,2,1.14,3.3,2.74,4.38l.4.27-.45.19a9,9,0,0,0-1.62,1c-.72.56-1.41,1.15-2,1.72l.08-.2c.31,4,1,7.72,1.45,11.12s.9,6.43,1.26,9,.61,4.54.81,6c.08.67.14,1.21.19,1.63a3.55,3.55,0,0,1,0,.58,2.08,2.08,0,0,1-.14-.56c-.07-.42-.16-1-.28-1.62-.24-1.47-.56-3.5-1-6s-.86-5.6-1.38-9-1.18-7.12-1.51-11.16v-.12l.1-.09c.63-.58,1.32-1.18,2.06-1.75a8.7,8.7,0,0,1,1.76-1.11l-.05.46a11,11,0,0,1-2.39-1.95,2.91,2.91,0,0,1-.73-1.44,2.06,2.06,0,0,1,0-.43l.06-.36.1-.71c.29-1.9.49-3.71.83-5.48a23.18,23.18,0,0,1,1.68-4.72,38.55,38.55,0,0,1,2-3.83,50.78,50.78,0,0,1,3.52-5.16c.45-.58.81-1,1.07-1.31A2.83,2.83,0,0,1,448.26,170Z" style="fill:#263238"></path><path d="M479.08,171.81a1.94,1.94,0,0,1,.13.42,8.53,8.53,0,0,1,.25,1.24,18.21,18.21,0,0,1,0,4.64,44.53,44.53,0,0,1-1.5,6.71,55,55,0,0,1-2.86,7.92c-1.09,2.45-2.25,4.74-3.31,6.85l-.06.1-.11,0-2.41.48.12-.37,1.56,1.84.1.12-.08.13-3.49,5.61-1,1.53a3,3,0,0,1-.38.52,2.19,2.19,0,0,1,.27-.58c.25-.43.54-1,.9-1.6.85-1.44,2-3.38,3.34-5.7l0,.25L469,200.12l-.25-.29.38-.08,2.41-.51-.17.13c1.05-2.11,2.19-4.4,3.28-6.84a60,60,0,0,0,2.87-7.84,48.38,48.38,0,0,0,1.59-6.63,19.77,19.77,0,0,0,.18-4.57C479.17,172.41,479,171.82,479.08,171.81Z" style="fill:#263238"></path><g style="opacity:0.30000000000000004"><path d="M420.42,222.25c-1.24-3.54-2.95-7.11-4.47-10.55l-1.26-.8a15.16,15.16,0,0,0,.47,9.72,1,1,0,0,0,.52.69c.37.13.77-.22.85-.6a2.15,2.15,0,0,0-.21-1.14,29.49,29.49,0,0,0,2.8,4.14,1.17,1.17,0,0,0,.6.48.83.83,0,0,0,.89-.7A2.32,2.32,0,0,0,420.42,222.25Z"></path></g><g style="opacity:0.30000000000000004"><path d="M441.43,225.25c-2.4-6.79-4.81-13.63-5.76-20.77a12.14,12.14,0,0,1,.06-4.73,4.88,4.88,0,0,1,3-3.48,2.66,2.66,0,0,1-.05-3.43c1,1,2,2.07,2.93,3.11a3.63,3.63,0,0,0-3.23,2.74,10.59,10.59,0,0,0,0,4.52q1.49,11.14,3,22.29"></path></g><g style="opacity:0.30000000000000004"><path d="M473.34,201.44q2.19-7.62,4.36-15.25L474,194.94a12,12,0,0,1-1.92,3.45,4.1,4.1,0,0,1-3.5,1.51l2.27,1.55c-1.63,2.62-3.23,5.51-4.86,8.13l3.5.3,3.85-6.11-1.17-2.11Z"></path></g><polygon points="451.7 168.8 451.88 166.36 456.4 172.74 457.84 179.63 461.54 172.74 474.28 165.33 474.28 171.81 471.85 178.11 467.1 181.78 461.66 184.16 455.19 182.95 451.29 180.74 450.42 176.17 451.7 168.8" style="fill:#f5f5f5"></polygon><path d="M456.08,172.64a19.88,19.88,0,0,1-.66,2.33,18.73,18.73,0,0,0-.75,5.75l.05,1-.53-.83-.31-.5a45.39,45.39,0,0,1-2.52-5.81c-.61-1.48-1.14-2.33-1.07-2.37a7.24,7.24,0,0,1,1.41,2.22c.74,1.45,1.4,3.6,2.62,5.69l.31.49-.48.15a16.57,16.57,0,0,1,.93-5.89A8,8,0,0,1,456.08,172.64Z" style="fill:#263238"></path><path d="M474.28,169.54s0,.09,0,.27a3.51,3.51,0,0,1-.08.75,5.85,5.85,0,0,1-1.35,2.41,16.09,16.09,0,0,1-3.12,2.64,44,44,0,0,0-4,2.92,37.5,37.5,0,0,1-3.6,2.65l-.47.29.1-.54a14.62,14.62,0,0,0,.11-3.27c-.05-1-.14-1.88-.21-2.61a15.32,15.32,0,0,1-.19-2.31A11.68,11.68,0,0,1,462,175c.11.72.23,1.6.32,2.61a14.35,14.35,0,0,1,0,3.39l-.37-.25c1.14-.73,2.3-1.67,3.53-2.65a39.57,39.57,0,0,1,4-2.91,16.89,16.89,0,0,0,3.11-2.48A6.14,6.14,0,0,0,474,170.5C474.23,169.9,474.23,169.54,474.28,169.54Z" style="fill:#263238"></path><path d="M489.69,254.88s-.13,0-.4.06l-1.19.07c-1,.05-2.55.11-4.46.14s-4.22,0-6.85,0c-1.31,0-2.7,0-4.16-.09l-2.25-.09-1.16-.09-.59-.06a1.81,1.81,0,0,1-.31-.05l-.17,0-.09,0a.4.4,0,0,1-.2-.22v-.09c.87-3.95,1.83-8.28,2.84-12.82.19-.85.38-1.7.56-2.53l0-.17.18,0c7.81-1.14,14.94-2.31,20-4.42l-.11.21c-.49-3.5-.89-6.36-1.17-8.4-.12-1-.22-1.72-.29-2.3a4,4,0,0,1-.06-.8,7,7,0,0,1,.17.79c.1.57.23,1.33.39,2.27.33,2,.78,4.89,1.34,8.38l0,.15-.13.06c-5.1,2.2-12.24,3.42-20.07,4.58l.22-.2c-.19.83-.38,1.67-.57,2.53-1,4.53-2,8.86-2.87,12.8l-.21-.06c6.25.29,11.72.4,15.52.41h5.64A1.85,1.85,0,0,1,489.69,254.88Z" style="fill:#263238"></path><polygon points="492.9 215.87 484.25 236.86 471.51 239.12 468.1 254.46 476.51 254.94 476.45 255.51 443.43 256.45 457.4 215.87 492.9 215.87" style="fill:#455a64"></polygon><polygon points="452.75 208.92 457.4 215.87 443.43 256.45 438.88 248.66 452.75 208.92" style="fill:#455a64"></polygon><polygon points="492.9 215.87 487.8 210.92 452.75 208.92 457.4 215.87 492.9 215.87" style="fill:#ebebeb"></polygon><path d="M457.4,215.87c.14,0-2.88,9.17-6.74,20.37s-7.09,20.25-7.23,20.21,2.88-9.17,6.74-20.38S457.27,215.83,457.4,215.87Z" style="fill:#263238"></path><path d="M471,240.28l-6.05-.52a31.35,31.35,0,0,0-3.88-5.25c-1.54-1.35-9.49-5.16-9.49-5.16a2.19,2.19,0,0,0,0,2.79,34.25,34.25,0,0,0,4.28,2.75h0a2.16,2.16,0,0,1-2.47,2.73c-2.33-.43-5.05-.91-5.4-.91s-2.73-2.2-4.43-3.87a1.45,1.45,0,0,0-2.45,1.33.66.66,0,0,0,.21.34s-2.46-.08-.27,3.22c0,0-.5,3,1.29,4.44,0,0,.78,3.68,1.93,5s12.44,3.67,12.44,3.67l11.75,1.15Z" style="fill:#b78876"></path><path d="M452.42,241.11a6.35,6.35,0,0,1-2,0,10.57,10.57,0,0,1-4.74-1.24,9.87,9.87,0,0,1-3.31-3.63,7.24,7.24,0,0,1-.86-1.82,8.72,8.72,0,0,1,1.17,1.63,11,11,0,0,0,3.26,3.37,12.11,12.11,0,0,0,4.51,1.33A9.73,9.73,0,0,1,452.42,241.11Z" style="fill:#aa6550"></path><path d="M451.25,243.73a3.64,3.64,0,0,1-1.84.14,11.79,11.79,0,0,1-2-.29,6.11,6.11,0,0,1-2.32-.94,11.05,11.05,0,0,1-1.73-1.78l-1.24-1.55a6.69,6.69,0,0,1-1.05-1.5c.06-.05.56.44,1.33,1.26.38.42.84.92,1.33,1.48a12.54,12.54,0,0,0,1.67,1.67,6.3,6.3,0,0,0,2.13.9c.71.18,1.36.3,1.91.39C450.56,243.68,451.24,243.66,451.25,243.73Z" style="fill:#aa6550"></path><path d="M449.67,246.64c0,.2-2.05-.22-4.43-.89a2,2,0,0,1-.88-.53,5.92,5.92,0,0,1-.61-.62,7.67,7.67,0,0,1-.87-1.18c-.44-.71-.56-1.23-.5-1.25s.31.41.8,1c.25.32.56.69.92,1.07a8.09,8.09,0,0,0,.6.56,1.76,1.76,0,0,0,.66.41c1.22.33,2.29.67,3.07.92A5.48,5.48,0,0,1,449.67,246.64Z" style="fill:#aa6550"></path></g></svg>